<svg xmlns="http://www.w3.org/2000/svg" viewBox="0 0 960 640"><path fill="#010101" d="M786.969 442.39c-8.282 0-15.005 6.713-15.005 15 0 8.278 6.723 15.002 15.005 15.002s14.995-6.724 14.995-15.001c0-8.288-6.713-15.001-14.995-15.001zm0 26.783a11.772 11.772 0 01-11.782-11.782c0-6.51 5.264-11.775 11.782-11.775 6.51 0 11.78 5.265 11.78 11.775 0 6.512-5.27 11.782-11.78 11.782zm6.164-15.26a5.085 5.085 0 00-5.09-5.082h-7.228v17.123h3.213V459h2.305l3.247 6.954h3.553l-3.39-7.251a5.095 5.095 0 003.39-4.79zm-5.09 1.872h-4.015v-3.747h4.014c1.033 0 1.878.84 1.878 1.876a1.878 1.878 0 01-1.878 1.871z"/><path fill="#A2AAAD" d="M570.403 80c-229.16 0-411.625 125.45-411.625 125.45s224.9-18.102 224.9 28.454c0 40.816-178.032 107.227-178.032 107.227s140.418 3.655 140.418 37.596c0 57.267-291.818 134.302-291.818 134.302S156.499 560 316.209 560c286.022 0 589.545-162.192 589.545-288.58C905.754 155.039 735.02 80 570.404 80z"/><path fill="#010101" d="M570.403 90.235c-165.475 0-307.513 67.236-370.7 102.536 0 0 194.212-13.676 194.212 41.133 0 34.185-83.47 75.243-141.791 99.76 47.913 4.57 104.19 16.07 104.19 45.062 0 53.411-178.852 110.49-268.963 135.857 40.69 13.608 122.008 35.184 228.858 35.184 287.394 0 579.333-161.948 579.333-278.347 0-111.92-168.774-181.185-325.139-181.185z"/><path fill="#FC4C02" d="M262.656 512.316l-33.716 8.96s30.158 3.349 77.698 3.349c340.982 0 567.365-207.451 567.365-240.481 0-3.636-1.18-6.715-1.18-6.715-120.86 143.795-360.848 242.91-610.167 234.887z"/><path fill="#FFF" d="M574.51 118.311c-127.338 0-266.064 49.395-266.064 49.395s142.712-7.176 142.712 52.5c0 55.638-100.836 96.451-100.836 96.451s61.223 14.33 61.223 49.725c0 80.413-198.426 130.38-198.426 130.38 416.385 20.18 654.152-202.4 654.152-243.59 0-38.223-115.813-134.86-292.762-134.86zm-68.462 267.792s130.68-63.01 175.13-100.384l-158.907 5.196 163.657-42.367c-47.093-35.816-133.42-57.893-133.42-57.893 52.377-1.136 139.779 8.24 212.14 68.705-81.207 70.607-189.867 108.532-258.6 126.743z"/><path fill="#B9975B" d="M574.51 126.494c-79.868 0-164.946 19.931-216.135 34.346 0 0 100.974 4.073 100.974 59.366 0 45.005-56.314 79.664-86.87 95.173 19.923 8.09 47.25 24.073 47.25 51.003 0 59.85-95.329 102.394-155.941 123.409 377.557 0 595.292-200.656 595.292-236.618 0-32.561-111.789-126.679-284.57-126.679zM441.375 408.761s167.598-80.424 213.551-113.991l-206.24 6.73 217.528-56.3c-49.861-33.372-161.448-58.507-161.448-58.507s156.917-31.624 272.81 72.456c-130.232 118.95-336.2 149.611-336.2 149.611z"/></svg>