<svg xmlns="http://www.w3.org/2000/svg" viewBox="0 0 960 640"><path fill="#010101" d="M578.78 529.604c-8.282 0-15.005 6.714-15.005 15.001 0 8.278 6.723 15.001 15.005 15.001s14.995-6.723 14.995-15c0-8.288-6.713-15.002-14.995-15.002zm0 26.784a11.772 11.772 0 01-11.782-11.783c0-6.51 5.264-11.774 11.782-11.774 6.51 0 11.78 5.264 11.78 11.774 0 6.512-5.27 11.783-11.78 11.783zm6.164-15.26a5.085 5.085 0 00-5.09-5.082h-7.228v17.123h3.213v-6.954h2.305l3.247 6.954h3.553l-3.39-7.251a5.095 5.095 0 003.39-4.79zm-5.09 1.872h-4.015v-3.747h4.014c1.033 0 1.878.839 1.878 1.875a1.878 1.878 0 01-1.877 1.872z"/><path fill="#FFF" d="M764.22 296.987s7.908-34.705-30.023-63.171c.308 30.19-12.766 42.695-12.766 42.695l-3.836-1.909-8.478-22.794 36.778-76.928c1.829 6.747 4.012 14.884 4.012 14.884l10.61-21.034s9.683-18.303 8.012-41.062l8.996-18.835-5.233-76.143c-3.672-14.825-15.25-25.723-30.043-30.457-14.17-4.501-28.325-2.128-38.888 6.488L542.063 133.428c-82.051 3.115-146.092 39.4-185.649 105.09L170.988 387.736c9.881 21.86 56.14 79.822 127.884 66.335l37.072-6.662S366.334 613.54 510.76 640c0 0-48.848-79.413-36.993-144.964 0 0 33.328 95.998 97.538 82.494-51.746-63.24-23.473-126.32-23.473-126.32s26.123 42.524 85.258 37.384c0 0-40.219-42.715-26.712-100.028l97.355 3.577 50.79-21.306 34.488-62.591-24.791-11.259z"/><path fill="#010101" d="M741.62 252.91c-1.541 17.978-17.848 34.783-17.848 34.783l-13.383-6.592-11.087-29.726 47.957-100.204c3.442 6.717 5.245 13.504 5.245 13.504 6.97-13.743 7.947-27.631 6.943-38.86l8.937-18.742-5.002-72.954c-2.427-9.78-11.953-19.513-23.854-23.297-11.284-3.593-22.7-1.537-30.83 5.118L545.355 142.244c-83.075 2.334-144.473 38.665-182.095 102.355L182.39 390.087s33.518 63.54 110.521 55.917l49.78-8.953c5.35 23.1 35.157 156.418 150.505 188.698-19.54-37.555-44.79-104.457-20.012-159.288 33.046 106.046 81.475 103.086 81.475 103.086-46.855-66.437-8.695-137.09-8.695-137.09 19.1 32.61 46.64 47.147 69.116 47.147 0 0-32.98-43.461-15.592-100.303l102.614 3.787 46.035-19.323 28.273-51.34-22.182-10.097c6.924-31.345-12.608-49.419-12.608-49.419z"/><g fill="#862633"><path d="M745.055 305.033h.092c.95-3.744 5.154-23.012-.656-36.155-5.081 15.439-14.123 23.923-18.149 27.087l-22.64-11.013.098.115 46.416 30.017-28.372 6.642-.059-.01-.02.01-25.348-9.366c.072 0 .072-.046.079-.046l-.164-.03c1.495-7.713 3.868-24.512-1.502-36.695-5.219 15.812-14.169 25.044-19.014 29.11l-24.47-9.075-20.563-53.704 74.708-120.7c4.25 4.458 8.8 10.526 12.51 18.565 3.7-11.861.158-27.103-2.248-35.102l9.068-14.668 21.277-15.378 3.954 19.952-35.486 98.322 28.142-60.637c1.22.954 3.803 3.006 9.6 14.956 2.963-9.488-1.528-30.58-1.528-30.58l8.209-15.688-3.869-61.06c-3.245 5.206-6.596 16.353-8.012 20.805-6.878-46.993-25.08-12.097-29.61-40.203L702.39 32.198c-1.193 5.9-3.088 17.821-3.462 35.875 0 0-10.563-11.16-13.933-21.749-1.311 6.6-3.337 19.641-3.777 39.289 0 0-11.828-12.52-15.448-24.29-1.422 7.373-3.56 21.582-4.039 42.803 0 0-12.746-13.455-16.83-26.224-1.6 8.114-3.922 23.736-4.479 46.956 0 0-14.838-15.71-18.884-30.177l-75.14 58.04c-4.984 5.911-28.411 29.778-37.027 65.624 0 0-.02-25.31 1.994-33.112-6.597 4.747-31.408 24.175-44.947 38.263 0 0 1.639-25.546 12.136-40.059-22.162 16.166-55.969 50.421-55.969 50.421 27.946-48.32 50.317-62.705 61.562-72.065-56.428 17.864-105.453 57.483-126.96 124.386 0 0 .42-13.373 2.473-24.421L199.569 388.406s24.654 45.389 94.077 43.639l90.654-14.393s-9.029-24.201-8.13-41.285c11.022 38.138 30.056 52.317 30.056 52.317s-50.887 6.704-50.887 6.744c9.219 33.39 29.446 127.411 121.478 171.61-21.441-41.38-25.198-80.628-21.592-113.51 5.816-39.2 25.807-63.067 25.807-63.067 3.253 46.028 25.08 80.829 39.328 98.984 3.698 5.187 7.835 9.944 12.438 14.071 0 0-18.53-33.541-4.982-93.722 1.206-3.397 11.5-32.208 22.063-42.774 13.717 38.679 47.143 53.605 47.143 53.605-23.867-49.362-3.147-96.647-3.147-96.647s107.407 4.006 108.227 4.04l40.363-16.934 20.772-37.691-18.182-8.36z"/><path d="M678.051 245.533l16.786 23.92-9.475-23.612 9.475-24.398z"/></g><g fill="#DDCBA4"><path d="M518.105 173.28c1.652-5.186-8.662-4.104-8.662-4.104 7.12-4.675 14.406-7.396 18.064-8.593 2.564-3.16 4.708-5.688 5.783-6.888-5.081.403-18.215 3.216-43.996 21.608 10.485-2 21.828-2.62 28.81-2.023zM745.055 305.033h.092c.95-3.744 5.154-23.012-.656-36.155-5.081 15.439-14.123 23.923-18.149 27.087l-22.64-11.013.098.115 46.416 30.017-28.372 6.642-.059-.01-.02.01-25.348-9.366c.072 0 .072-.046.079-.046l-.164-.03c1.495-7.713 3.868-24.512-1.502-36.694-5.219 15.811-14.169 25.043-19.014 29.109l-24.47-9.075-20.563-53.704 74.708-120.7c4.25 4.458 8.8 10.526 12.51 18.565 3.7-11.861.158-27.102-2.248-35.102l9.068-14.667 21.277-15.38 3.954 19.953-35.486 98.322 28.142-60.637c1.22.954 3.803 3.006 9.6 14.956 2.963-9.487-1.528-30.58-1.528-30.58l8.209-15.687-12.137-30.303-34.37 19.008L599.395 218.04c4.328-1.078-38.574 14.147-52.572 32.207 0 0 29.473 5.685 32.213 25.428-11.514 4.625-222.564 147.783-132.362 293.84 7.901 12.27 17.795 24.84 30.142 37.524-21.441-41.38-25.198-80.63-21.592-113.511 6.045-54.799 32.672-91.94 32.672-91.94s-.819 81.344 32.463 127.858c3.698 5.186 7.836 9.943 12.438 14.07 0 0-18.53-33.541-4.982-93.722 4.792-21.376 13.611-46.091 28.79-73.876-9.448 44.35 30.601 75.967 40.416 84.707-23.867-49.362-3.147-96.647-3.147-96.647s107.407 4.006 108.227 4.04l37.51-36.739 2.853 19.805 20.772-37.692-18.182-8.36zM222.111 391.622c11.52 20.696 38.652 26.361 54.487 27.892-4.583-4.534-19.847-20.51-15.126-32.236 0 0 12.897 10.13 30.423 11.989 0 0-14.543-40.354 10.275-71.515-36.338 29.119-80.059 63.87-80.059 63.87z"/></g><g fill="#010101"><path d="M599.396 218.04L712.48 89.668 593.547 211.464s-29.597 4.99-72.459 38.82c21.467 41.222-81.035 169.827-124.435 135.722 8.865 26.139 41.105 15.454 41.105 15.454-4.334 10.025-46.41 82.239 8.917 168.054-90.202-146.056 120.848-289.214 132.362-293.84-2.74-19.742-32.213-25.427-32.213-25.427 13.998-18.06 56.9-33.285 52.572-32.207z"/><path d="M649.11 198.842l-34.496 41.796 29.939 55.356-20.313-55.356zM347.123 291.322c-6.76 5.747-24.745 20.208-44.953 36.43-24.818 31.161-10.275 71.515-10.275 71.515-17.526-1.859-30.423-11.989-30.423-11.989-4.721 11.727 10.543 27.703 15.126 32.236 7.239.702 12.097.535 12.097.535l77.128-13.625s-111.36-25.35-18.7-115.101z"/></g></svg>