<svg xmlns="http://www.w3.org/2000/svg" viewBox="0 0 960 640"><path fill="#010101" d="M686.025 580.018c-8.282 0-15.005 6.713-15.005 15 0 8.279 6.723 15.002 15.005 15.002s14.995-6.723 14.995-15.001c0-8.288-6.713-15.001-14.995-15.001zm0 26.783a11.772 11.772 0 01-11.782-11.782c0-6.51 5.264-11.774 11.782-11.774 6.51 0 11.78 5.264 11.78 11.774 0 6.512-5.27 11.782-11.78 11.782zm6.164-15.259a5.085 5.085 0 00-5.09-5.082h-7.228v17.122h3.213v-6.954h2.306l3.246 6.954h3.553l-3.389-7.25a5.096 5.096 0 003.389-4.79zm-5.09 1.872h-4.015v-3.747h4.015c1.032 0 1.877.839 1.877 1.875a1.878 1.878 0 01-1.877 1.872z"/><path fill="none" d="M800.005 320.007C800.005 143.55 656.455 0 479.998 0 303.552 0 159.995 143.55 159.995 320.007 159.995 496.443 303.552 640 479.998 640c176.457 0 320.007-143.557 320.007-319.993z"/><path fill="#FFB81C" d="M479.998 10.265c-171.061 0-309.728 138.677-309.728 309.742 0 171.044 138.667 309.731 309.728 309.731 171.055 0 309.739-138.687 309.739-309.731 0-171.065-138.684-309.742-309.739-309.742z"/><path fill="#010101" d="M479.998 21.77c-164.696 0-298.23 133.524-298.23 298.237 0 164.7 133.534 298.227 298.23 298.227S778.23 484.707 778.23 320.007c0-164.713-133.535-298.238-298.23-298.238z"/><g fill="#FFB81C"><path d="M619.74 204.049l51.28-51.278a257.472 257.472 0 00-23.786-23.796l-51.61 51.624 24.115 23.45zM496.82 66.668c-5.57-.36-11.16-.61-16.822-.61-5.661 0-11.255.25-16.828.61v81.62h33.65v-81.62zM337.55 153.775l-24.784-24.8a256.268 256.268 0 00-23.79 23.796l48.573 48.573v-47.569zM337.55 438.663l-48.574 48.573a257.475 257.475 0 0023.79 23.79l24.783-24.79v-47.573zM358.948 303.185H226.659c-.356 5.553-.602 11.164-.602 16.822 0 5.654.246 11.242.626 16.818h132.265v-33.64zM733.33 303.185H622.306l-17.287 16.822 17.3 16.818h111.008c.367-5.576.606-11.164.606-16.818 0-5.658-.239-11.269-.603-16.822zM595.616 459.415l51.611 51.61a257.88 257.88 0 0023.793-23.79l-51.287-51.277-24.117 23.457zM463.17 573.336c5.573.353 11.167.612 16.828.612s11.252-.259 16.822-.612V491.7h-33.65v81.635z"/><path d="M350.579 432.18v46.505h206.564l52.275-50.87v-85.358l-23.073-22.45 23.073-22.463v-85.359l-52.275-50.866H350.58v46.488l21.416 20.843v182.707l-21.416 20.823z"/></g><g fill="#010101"><path d="M538.745 241.737l-14.67-14.262H439.4v59.447h84.675l14.67-14.252v-30.933zM538.745 367.344l-14.67-14.256H439.4v59.438h84.675l14.67-14.246v-30.936z"/><path d="M361.329 436.723v31.209h191.436l45.9-44.653v-76.286l-27.748-26.986 27.747-27.013v-76.273l-45.899-44.666H361.33v31.215l21.409 20.84v191.783l-21.41 20.83zm67.3-220.002h99.828l21.021 20.47v40.025l-21.021 20.46H428.63V216.72zm0 125.614h99.828l21.021 20.466v40.008l-21.021 20.47H428.63v-80.944z"/></g><g fill="#FFF"><path d="M323.496 519.9c35.533 27.888 78.68 46.454 125.812 52.132v-80.33h-97.634L323.496 519.9zM562.43 491.701h-51.748v80.331c47.131-5.678 90.289-24.244 125.812-52.132l-50.8-50.823-23.263 22.624zM358.948 350.694H227.96c5.691 47.138 24.264 90.269 52.146 125.829l78.842-78.87v-46.96zM358.948 242.353l-78.842-78.859c-27.882 35.54-46.455 78.681-52.147 125.826h130.989v-46.967zM585.695 170.913l50.809-50.816c-35.533-27.878-78.69-46.448-125.822-52.129v80.32h51.749l23.264 22.625zM622.45 419.06l57.454 57.463c27.872-35.56 46.435-78.69 52.133-125.83H622.451v68.366zM449.308 148.289V67.968c-47.132 5.681-90.28 24.251-125.816 52.13l28.185 28.19h97.63zM622.45 289.32h109.587c-5.695-47.145-24.261-90.286-52.133-125.829l-57.453 57.464v68.365zM452.416 240.505v33.387h66.372l6.917-6.732v-19.93l-6.917-6.725zM452.416 366.122v33.364h66.372l6.917-6.729v-19.91l-6.917-6.725z"/></g></svg>