<svg xmlns="http://www.w3.org/2000/svg" viewBox="0 0 960 640"><path fill="#010101" d="M733.91 420.518c-8.282 0-15.005 6.714-15.005 15.001 0 8.278 6.723 15.001 15.005 15.001 8.281 0 14.995-6.723 14.995-15 0-8.288-6.714-15.002-14.995-15.002zm0 26.784a11.772 11.772 0 01-11.782-11.783c0-6.51 5.264-11.774 11.782-11.774 6.51 0 11.78 5.264 11.78 11.774 0 6.512-5.27 11.783-11.78 11.783zm6.163-15.26a5.085 5.085 0 00-5.09-5.082h-7.228v17.123h3.213v-6.954h2.306l3.246 6.954h3.554l-3.39-7.252a5.095 5.095 0 003.39-4.789zm-5.09 1.872h-4.015v-3.747h4.015c1.033 0 1.878.839 1.878 1.876a1.878 1.878 0 01-1.878 1.871z"/><path fill="#010101" d="M807.957 408.157c0-24.137 23.702-113.907-148.571-249.492l28.957-6.44-14.902-49.175-28.75 19.162V92.406h-56.417C551.536 65.934 533.822 32 475.813 32c-24.204 0-49.634 4.816-55.162 4.816-4.235 0-17.138-2.73-39.089-2.73-63.328 0-69.14 47.223-61.226 63.818-83.278 57.034-124.535 98.183-124.535 113.002 0 5.735 3.376 13.195 3.376 23.939 0 23.43-50.595 75.025-50.595 102.332 0 25.515 32.485 27.24 32.485 27.24 1.821 7.537-10.752 32.486.548 45.256-15.612 16.972 2.603 25.443 2.603 38.956 0 9.172-6.339 11.963-6.339 28.845 0 19.244 9.055 42.512 56.565 42.512 18.78 0 35.42-2.95 48.644-2.95 3.66 39.868 20.695 55.547 23.496 65.565 2.255 8.026 7.49 25.399 18.063 25.399 13.782 0 89.835-24.957 147.6-59.996 28.976 10.779 65.773 7.222 79.138 7.222 14.582 0 20.637 8.915 29.212 8.915 5.178 0 44.455-43.826 41.956-139.816 24.6 41.643 39.2 68.733 40.662 84.23 31.863-11.385 58.708-86.883 47.03-134.93 0 0 40.22 65.302 101.173 55.652 0 0-3.461-11.907-3.461-21.12z"/><g fill="#FF6720"><path d="M772.179 285.93c-40.238-64.72-110.567-119.144-126.771-131.196-.209 3.712-1.274 7.19-3.038 10.225a22.937 22.937 0 01-3.49 4.623 22.587 22.587 0 01-5.075 3.92c2.793 11.153 7.065 27.144 12.753 45.703 8.432 20.62 17.96 45.983 25.91 72.423 9.189 21.87 19.78 43.68 31.817 63.048 49.83 80.162 99.719 69.14 99.719 69.14-8.545-13.785 16.564-60.03-31.825-137.885zM635.135 101.79h-37.012l23.647 25.605h13.365z"/></g><path fill="#FFD100" d="M704.586 364.609a249.643 249.643 0 01-4.631-7.245c-6.858-11.01-13.243-22.808-19.177-34.96-2.413-10.271-5.234-20.599-8.31-30.776-7.95-26.44-17.478-51.803-25.91-72.423-5.688-18.559-9.96-34.55-12.753-45.704a22.935 22.935 0 01-6.234 2.452c-1.689.392-3.425.623-5.216.623-1.651 0-3.265-.184-4.811-.51a23.56 23.56 0 01-6.056-2.201c-7.13 165.54 9.263 194.193 12.273 241.431 41.813 65.922 43.294 85.158 43.294 85.158s48.812-34.224 37.531-135.845z"/><path fill="#001871" d="M686.343 350.233c-1.433-9.131-3.338-18.453-5.565-27.828-2.413-10.272-5.234-20.6-8.31-30.777-7.95-26.44-17.478-51.802-25.91-72.422-8.28-20.181-15.451-35.759-18.987-43.253-1.689.392-3.425.623-5.216.623-1.651 0-3.265-.184-4.811-.51-1.566 17.84-7.196 93.995 3.65 162.584 15.535 98.388 52.831 133.998 52.831 133.998s25.796-37.164 12.318-122.416zm-.547 38.598l-29.561-15.962c-.914-5.713-3.32-20.938-6.32-39.938l32.259 18.432c2.152 13.773 3.265 26.242 3.622 37.468zm-12.546-78.754c3.228 12.038 5.982 24.1 8.019 35.835l-32.202-18.421a39168.063 39168.063 0 01-5.394-34.061l29.577 16.647zm-38.2-107.067c10.81 25.044 25.845 62.698 36.598 101.234l-28.826-16.22c-6.376-40.455-13.054-82.655-13.054-82.655-.764-4.859 4.037-5.52 5.283-2.36zm-15.222 5.093c.206-5.314 5.11-5.749 5.694-2.06l12.886 81.558-17.091 15.86c-3.028-35.678-2.565-70.589-1.49-95.358zm5.592 129.878c-1.509-9.593-2.688-19.347-3.612-29.102l17.402-16.17 5.594 35.396-18.036 17.864a413.95 413.95 0 01-1.348-7.988zm2.273 13.1l17.93-17.751 6.369 40.305-14.526 17.722c-3.604-11.868-6.935-25.25-9.773-40.276zm11.3 45.182l14.11-17.195c2.34 9.601 9.735 39.888 10.046 41.209-.538.982-5.669 10.283-8.414 15.242-5.177-10.375-10.649-23.356-15.742-39.256zm34.201 68.93c-3.631-4.488-9.508-12.622-16.09-25.05l8.942-16.224 16.014 13.692c-2.771 13.395-6.413 22.488-8.866 27.581zm9.792-32.447l-15.62-13.356a35792.89 35792.89 0 01-10.008-41.03l28.543 15.413c.179 15.43-1.066 28.39-2.915 38.973z"/><path fill="#C8102E" d="M599.273 151.755C515.24 214.621 470.02 308.383 456.335 340.477c0 0-1.82 3.773.292 7.885l26.617 51.777c1.114 2.158 3.5 2.603 5.302.969l43.784-39.54c3.02-2.723 3.991-7.113 3.991-7.113 19.951-114.176 46.936-170.016 63.622-195.315-.472-1.835-.756-3.734-.756-5.706 0-.572.058-1.129.086-1.679z"/><g fill="#00843D"><path d="M668.97 118.254l-22.526 15.017 5.188 17.148 25.373-5.65zM607.035 170.742a23.372 23.372 0 01-4.281-5.032c-26.939 43.159-61.217 151.126-61.217 243.588 0 94.55 28.94 144.787 39.4 144.787 8.064 0 36.4-50.67 36.4-115.867 0-17.782-14.942-89.27-14.942-223.469 0-28.801 2.207-36.493 4.64-44.007zM462.909 343.365l23.835 51.48 43.4-40.197S551.091 232.66 588.38 165.37c-98.382 95.507-125.471 177.995-125.471 177.995zm74.054-43.06c-.463 1.977-.915 3.92-1.36 5.826-5.829 25.395-9.252 44.158-9.592 46.083-.037.103-.037.149-.037.149l-2.99 2.773-34.76 32.204-20.495-44.278s.689-2.171 2.357-6.245c.613-1.526 1.358-3.3 2.236-5.338 4.14-9.467 11.375-24.4 22.997-43.567 1.208-2.01 2.489-4.06 3.8-6.155 16.33-26.052 40.306-59.033 74.724-96.155-15.574 31.92-28.42 78.78-36.88 114.704zM622.355 135.884c-9.698 0-17.555 7.858-17.555 17.55s7.857 17.538 17.555 17.538c9.677 0 17.517-7.846 17.517-17.538s-7.84-17.55-17.517-17.55z"/></g><path fill="#FFD100" d="M596.132 188.759S548.27 289.633 548.27 407.165c0 77.837 24.101 137.3 30.79 137.3 5.263 0 29.89-37.023 29.89-114.294 0-31.268-16.912-149.867-12.818-241.412zm-20.412 67.937c.85-3.094 5.217-3.915 4.622 1.347-3.188 26.963-5.339 51.355-6.734 73.126l-16.866 13.006c4.452-32.937 11.696-62.919 18.978-87.479zm-19.742 93.424l17.29-13.341c-1.169 19.66-1.725 37.061-1.887 52.183l-18.978 12.996c.208-17.769 1.53-35.165 3.575-51.838zm-3.622 57.217l18.988-12.999c-.114 24.502.784 42.549 1.632 53.86l-17.1 10.642a381.37 381.37 0 01-3.52-51.503zm46.276 84.627c-2.217 1.557-9.16 3.98-20.29-14.49-6.48 19.622-14.214 14.148-17.081 11.14-1.726-7.601-3.312-15.928-4.67-24.874l19.224-11.958 26.674 17.723a252.605 252.605 0 01-3.857 22.459zm6.234-61.793c0 12.518-.659 23.988-1.791 34.381l-24.345-16.185c-.811-10.658-1.707-27.733-1.67-51.01l27.278 18.828c.34 5.47.528 10.183.528 13.986zm-.905-19.6l-26.881-18.553c.113-15.02.601-32.4 1.744-52.124l20.175 14.903c2 21.562 3.886 40.898 4.962 55.773zm-5.489-61.518l-19.356-14.29c1.396-22.69 3.623-48.336 6.999-76.864.934-8.019 5.706-3.94 5.857.343 1.198 30.424 3.896 62.323 6.5 90.811z"/><path fill="#FFD100" d="M553.761 168.001c5.868 0 5.104-7.852-.33-7.852-84.128 0-132.29 10.682-139.693 12.456-4.652-41.244-28.347-54.368-28.347-81.049 0-10.357 6.842-12.464 12.452-12.464 19.64 0 34.363 23.03 61.652 23.03 25.363 0 30.814-17.96 45.257-17.96 21.693 0 12.148 57.678 50.613 57.678 12.159 0 20.13-4.866 20.13-4.866 5.167-2.88.225-9.07-4.199-6.75 0 0-7.725 3.972-15.28 3.972-32.495 0-18.308-57.896-52.114-57.896-16.185 0-21.582 17.822-44.917 17.822-26.062 0-36.409-23.35-62.254-23.35-14.659 0-19.903 9.823-19.903 19.671 0 29.519 29.146 51.992 29.146 92.485 0 41.155-14.054 77.407-14.054 134.602 0 66.695 63.349 86.335 63.349 148.495 0 35.162 13.487 56.922 28.598 56.922 8.311 0 16.074-4.883 19.714-17.807 2.17.935 4.169 1.442 5.868 1.442 4.207 0 19.958-4.619 19.958-23.128 0-52.99-91.042-80.42-91.042-163.463 0-39.927 6.405-103.813 16.206-103.813 5.13 0 11.544 22.36 23.806 22.36 15.188 0 9.876-44.127 16.668-44.127 5.414 0 13.508 20.601 23.185 20.601 7.837 0 10.442-15.968 13.847-28.542 1.235-5.838-7.065-7.494-8.235-1.552-2.094 9.338-6.528 21.687-6.528 21.687-4.923-4.944-12.96-20.05-22.676-20.05-15.45 0-13.196 44.045-16.638 44.045-6.49 0-10.564-22.854-24.637-22.854-18.11 0-23.486 63.018-23.486 112.65 0 87.28 91.097 116.472 91.097 162.228 0 11.511-8.357 15.433-11.695 15.433-1.358 0-2.755-.303-4.142-.83.407-3.177.622-6.677.622-10.545 0-26.976-14.837-32.034-20.882-32.034-6.038 0-9.405 5.245-9.405 13.914 0 11.629 10.262 24.571 20.3 31.967-1.491 7.26-4.68 13.932-11.452 13.932-13.111 0-20.514-30.372-20.514-48.493 0-65.557-63.34-84.59-63.34-150.114 0-55.814 14.055-91.601 14.055-128.732 0-2.312-.057-4.523-.152-6.693 8.716-2.089 63-14.24 139.392-12.428zm-69.763 301.062c0-4.567 1.17-6.274 2.388-6.274 7.366 0 10.705 14.809 10.705 20.722 0 1.586.009 4.567-.207 8.077-7.13-6.897-12.886-17.488-12.886-22.525z"/><g fill="#CC8A00"><path d="M424.8 467.724c14.707-22.67 6.32-61.71-21.731-50.88-16.205-26.487-34.56-62.276-34.56-106.572 0-47.182 9.639-59.575 9.639-101.233 0-71.023-32.843-85.1-53.972-99.39-50.181 34.003-116.81 80.594-116.81 105.363 0 7.34 3.244 14.154 3.244 21.36 0 25.628-49.946 75.437-49.946 99.543 0 9.034 7.217 16.628 18.818 16.628 11.603 0 41.144-4.3 52.246-5.49 11.103-1.197 12.33-6.52 12.33-9.395 0-7.199-11.414-17.206-20.035-17.206-7.187 0-7.847 4.238-7.847 5.304 0 4.724 6.809 6.094 6.809 6.094 8.583-1.198 8.64 6.376.424 6.376-6.782 0-14.309-4.981-14.309-13.593 0-8.626 6.925-10.778 12.056-10.778 21.562 0 33.966 19.493 30.4 31.898 26.74 13.28 25.976 32.806 21.628 32.806-9.264 0-2.83-24.592-37.693-24.592-9.789 0-30.221 2.942-35.04 3.433-4.802.47-6.255 1.17-6.82 5.15-.584 3.963-5.66 18.34-5.66 27.183 0 13.094 8.715 13.963 14.32 13.963 14.657 0 39.502-3.519 39.502-9.396 0-3.755-6.302-2.688-8.622-2.688-4.376 0-6.365-2.725-6.365-4.29 0-3.89 6.291-5.785 13.835-5.785 12.49 0 13.8 8.121 13.17 11.935-1.388 8.402 12.177 6.376 12.177 24.202 0 1.978-.179 7.095-4.425 7.095-4.282 0-4.339-5.34-4.339-8.332 0-3.009-4.885-7.666-9.055-7.666-4.433 0-20.468 8.28-55.028 5.112-13.62 17.108 2.47 18.344 2.47 35.643 0 19.377-5.865 18.043-5.865 29.865 0 23.474 25.748 29.606 51.395 29.606 53.191 0 113.124-12.382 134.235-50.415-7.264 33.664-34.354 45.735-80.403 56.19 5.207 37.277 12.942 45.933 18.564 55.992 5.63 10.046 6.847 24.222 16.742 24.222 11.857 0 81.808-25.232 128.875-53.587L424.8 467.724zM294.341 146.369l24.931-18.635a3.925 3.925 0 014.565-.075c18.28 12.782 28.439 25.287 28.863 25.817a3.89 3.89 0 01-6.065 4.871c-.085-.113-9.082-11.144-24.969-22.685-1.188.867-3.386 2.53-5.96 4.453 7.838 6.634 29.543 25.59 43.974 43.52a3.891 3.891 0 01-.565 5.472c-1.699 1.344-4.133 1.076-5.472-.59-14.799-18.374-38.296-38.531-44.34-43.625-2.378 1.778-4.633 3.462-6.295 4.702 14.225 11.73 24.459 23.855 24.921 24.407 1.643 1.892.795 4.47-.479 5.475a3.873 3.873 0 01-5.462-.471c-.122-.15-12.13-14.361-27.703-26.458-1.792-1.518-2.256-4.461.056-6.178zm-52.68 133.393c-4.264 0-1.452-10.504-1.49-14.413-23.808-.344-26.458-8.885.942-9.115-.81-3.543-3.65-17.625.643-25.204l-13.375-5.197c-10.886-4.36 9.847-11.541 6.847-18.036 0 0-6.187-4.707-6.187-10.007 0-5.297 8.262-11.575 24.211-11.575 29.76 0 37.543 25.436 61.284 25.436 4.612 0 17.016-2.51 17.016 2.547 0 5.055-10.008 10.327-19.024 10.327-20.762 0-36.439-15.628-46.89-15.628-.971 0-2.96.33-3.754 2.267l-2.81 6.471c-2.086 4.754 1.095 6.64 1.095 6.64l36.71 21.596c7.697 4.531 3.622 8.155-.284 9.296 0 0-22.523 6.872-42.492 9.334-2.17 9.984-7.944 15.26-12.442 15.26zm116.68 114.237c-50.38-14.903-18.357-77.181 4.969-70.972-30.531 27.694-15.13 59.842-4.97 70.972z"/><path d="M254.271 206.279l-14.874 3.957c-3.132.829-3.301 2.674-.396 4.084l11.32 5.485c1.17.576 2.546.06 3.054-1.132l3.906-8.9c1.17-2.68-.197-4.249-3.01-3.494z"/></g><g fill="#C8102E"><path d="M415.105 420.447c-10.055-2.933-21.959 7.602-26.61 23.535-4.63 15.919-.236 31.212 9.82 34.134 10.073 2.925 21.997-7.601 26.627-23.533 4.632-15.933.237-31.204-9.837-34.136zm1.736 31.777c-2.944 10.103-9.867 16.99-15.452 15.356-5.593-1.612-7.733-11.141-4.791-21.249 2.943-10.105 9.867-16.98 15.441-15.358 5.594 1.624 7.743 11.149 4.802 21.251zM233.135 427.447c-4.868-6.87-7.557-.653-12.773 2.017-5.205 2.678-11.82 1.227-9.091 9.186 2.95 8.576-3.301 26.129-.548 31.505 2.17 4.263 6.98 5.98 10.884 3.983 3.5-1.804 5.171-4.906 5.848-8.52 1.858-9.79-3.755-23.316-1.187-24.627 2.584-1.321 10.27 11.138 19.298 15.348 3.321 1.547 6.83 2.007 10.328.226 3.905-2.002 5.33-6.906 3.142-11.159-2.755-5.376-20.657-10.568-25.901-17.959zM304.311 310.887c-2.67.71-6.81 3.073-13.545 4.845-6.716 1.773-15.205 1.821-16.563-3.32-.115-.446-.115-.928-.057-1.428.539-4.147 6.63-9.712 6.63-9.712s-8.046-1.835-10.553-5.196c-.302-.391-.547-.816-.67-1.27-1.359-5.126 6.065-9.281 12.781-11.053 6.734-1.77 11.516-1.76 14.167-2.457 5.452-1.436 10.055-5.014 8.904-9.368-2.113-7.999-12.581-6.031-18.374-4.505-28.77 7.584-35.146 19.394-33.003 27.563 2.16 8.172 11.497 10.3 11.497 10.3s-7.073 6.456-4.924 14.63c2.151 8.166 13.527 15.298 42.297 7.716 5.79-1.529 15.883-4.98 13.77-12.983-1.15-4.349-6.906-5.2-12.357-3.762zM622.355 142.204c-6.206 0-11.244 5.018-11.244 11.23 0 6.206 5.037 11.224 11.244 11.224 6.189 0 11.214-5.018 11.214-11.224 0-6.212-5.025-11.23-11.214-11.23z"/></g><g fill="#FFF"><path d="M257.697 237.227c-2.076 7.537-.613 16.246-.133 18.562 23.525-1.41 33.126-5.758 33.126-5.758l-32.993-12.804zM226.268 440.99c-2.568 1.312 3.045 14.837 1.187 24.629 1.567 4.423 8.093 20.608 19.092 14.97 11.017-5.641 1.717-20.393-.981-24.25-9.027-4.21-16.714-16.669-19.298-15.348zM318.47 278.324c-9.093 2.39-17.384 11.498-33.91 15.86-6.037 1.595-11.177 1.892-14.336 1.892 2.506 3.361 10.553 5.196 10.553 5.196s-6.092 5.565-6.63 9.712c2.753-1.563 7.377-3.825 13.44-5.415 16.497-4.359 28.194-.51 37.307-2.918 4.243-1.128 12.13-3.308 8.941-15.376-3.188-12.064-11.111-10.078-15.366-8.951zM546.292 226.491a2.053 2.053 0 00-2.756.902 833.783 833.783 0 00-20.478 43.742l-23.94 10.622a404.93 404.93 0 00-3.8 6.155l25.364-11.248c-6.593 15.498-12.026 29.594-16.42 41.846l-31.94 12.97a238.753 238.753 0 00-2.236 5.337l32.344-13.147c-9.914 28.277-13.959 45.557-14.036 45.88a2.018 2.018 0 001.53 2.432c1.094.262 2.206-.414 2.451-1.508.076-.321 3.962-16.921 13.47-44.18l17.14 28.842 2.989-2.773s0-.046.037-.149l-18.383-30.958a763.572 763.572 0 0114.724-38l13.251 22.875c.445-1.906.897-3.849 1.36-5.825l-12.631-21.77a835.032 835.032 0 0122.864-49.294 2.04 2.04 0 00-.904-2.75zM757.266 290.553c-31.823-51.21-99.483-112.053-114.896-125.594a22.934 22.934 0 01-3.49 4.623c9.753 27.519 47.426 130.733 82.118 186.554 33.94 54.593 67.14 51.936 67.14 51.936s11.141-49.937-30.872-117.52zm19.932 52.124l-27.844-5.084-32.977-53.039 39.579 11.695c10.073 16.823 16.79 32.475 21.242 46.428zm-24.469-51.644l-39.597-11.7-30.524-49.087 27.561 6.839c15.971 17.54 31.402 36.329 42.56 53.948zM644.05 171.926c12.044 10.777 36.729 33.5 61.085 59.687l-25.601-6.355-16.488-26.512a2.031 2.031 0 00-2.81-.65 2.033 2.033 0 00-.65 2.816l17.233 27.74-3.548 19.401c-13.185-32.073-23.825-61.077-29.22-76.127zm32.108 83.1l3.886-21.21 29.976 48.252-9.857 26.76c-8.404-17.42-16.553-35.962-24.005-53.802zm48.332 98.951c-7.264-11.657-14.638-25.383-21.846-40.054l10.112-27.44 33.033 53.138-10.14 30.344c-3.69-4.66-7.423-9.962-11.159-15.988zm60.16 49.821c-7.15-.897-25.374-5.65-45.963-30.079l9.912-29.59 15.658 25.193a2.047 2.047 0 002.811.66c.961-.603 1.264-1.868.652-2.821l-15.452-24.88 26.27 4.798c8.281 28.411 7.054 49.03 6.112 56.72z"/></g></svg>