<svg xmlns="http://www.w3.org/2000/svg" viewBox="0 0 960 640"><path fill="#041E42" d="M557.354 613.388v11.824h-2.957v-11.824h-3.423v-2.937h9.802v2.937h-3.422zm16.023 11.824V616.5l-2.49 5.428h-2.612l-2.49-5.428v8.713h-2.956V610.45h2.956l3.796 7.883 3.796-7.883h2.956v14.761h-2.956z"/><path fill="none" d="M761.852 64.23C681.134 22.21 583.67 0 479.997 0 376.31 0 278.849 22.212 198.148 64.234l-4.345 2.26v122.943c0 32.726 4.672 118.963 47.943 212.724 48.547 105.194 118.688 175.749 234.531 235.908l3.72 1.931 3.722-1.931c115.85-60.17 185.99-130.726 234.534-235.908 43.272-93.761 47.944-179.998 47.944-212.725V66.492l-4.345-2.261z"/><path fill="#041E42" d="M201.876 71.394v118.044c0 32.193 4.601 117.037 47.2 209.341 51.96 112.583 128.4 178.885 230.923 232.126 101.68-52.812 178.633-118.825 230.924-232.126 42.6-92.304 47.2-177.148 47.2-209.341V71.392C672.135 26.627 573.814 8.074 479.999 8.074c-92.945 0-191.576 18.255-278.123 63.32z"/><path fill="#B9975B" d="M216.971 80.552v108.886c0 31.195 4.463 113.427 45.81 203.015C311.093 497.133 384.364 564.227 480 613.898c96.02-49.871 169.074-117.129 217.219-221.445 41.345-89.588 45.809-171.82 45.809-203.015V80.552c-76.156-39.648-175.83-57.386-263.028-57.386-87.501 0-187.022 17.81-263.028 57.386z"/><g fill="#041E42"><path d="M593.358 301.246c12.422-6.988 29.116-22.518 29.116-22.518 8.93-26.398 16.644-61.79 16.644-61.79 0-3.494-4.221-9.173-4.221-9.173-4.223-2.182-13.976-3.638-13.976-3.638-14.414 2.329-33.193 16.45-48.143 28.178 7.766 0 21.356-2.509 21.356-2.509-2.719 6.988-12.425 25.236-12.425 25.236 6.212.387 18.248-2.33 18.248-2.33-4.659 14.364-13.587 31.85-13.587 31.85l6.988 16.694zM489.507 252.12a276.937 276.937 0 00-5.868-2.408c-5.76-2.293-10.728-4.095-10.728-4.095s-1.183.008-3.514.273c-.583.067-1.239.15-1.966.252a99.081 99.081 0 00-5.223.89c-9.12 1.792-24.003 5.85-44.41 15.039h-.001l-1.752-3.602-2.337-4.801-23.393 32.195h.002c7.947 1.486 16.176 1.97 23.738 1.934 16.634-.081 30.03-2.68 30.03-2.68 8.706-7.338 16.421-15.297 21.702-21.08 1.76-1.927 3.249-3.613 4.414-4.954 1.554-1.787 2.531-2.962 2.805-3.276 5.437-1.553 9.709-2.329 16.501-3.686zM525.236 273.367c-13.198-10.482-21.751-13.326-21.751-13.326s.791 15.006-.373 19.762c-12.828 17.603-28.127 34.106-28.127 34.106l45.884-21.034c2.657-9.792 4.367-19.508 4.367-19.508z"/><path d="M479.998 158.859c-142.146 0-236.482 46.048-244.068 49.87 4.502 88.71 41.247 248.929 192.766 353.565 20.276-10.855 33.791-29.113 41.825-43.34 15.975 19.314 17.627 46.265 17.628 46.28v.001c-1.165 13.201-8.151 27.876-8.151 27.876h.001a483.036 483.036 0 0038.578-22.334c20.253-13.024 38.58-27.021 55.157-41.72l.001.002c.476-.422.95-.846 1.426-1.27 53.435-55.284 54.963-138.138 54.963-138.138-11.647-48.334-32.107-65.112-32.107-65.112 4.076 22.112 6.599 46.377 6.599 46.377-13.005 28.727-36.298 47.945-36.298 47.945-20.964 2.33-37.584.24-66.677-9.609-25.236-8.542-43.966-21.837-43.966-21.837s-9.608-.583-20.673.582c-9.364.985-20.673 3.494-20.673 3.494 12.52-22.129 19.946-44.611 21.298-54.837-8.522-9.017-17.738-17.596-27.16-24.376-20.734.966-37.23 2.166-37.23 2.166l6.988-28.339s-4.769 3.971-10.098 9.301c-5.721 5.721-12.031 12.828-12.031 12.828-12.425 5.045-29.895 7.763-29.895 7.763-8.928-2.328-17.47-8.152-17.47-8.152 20.965-31.057 55.129-43.482 55.129-43.482-6.213-7.374-5.824-13.198-5.824-13.198 8.71-5.758 16.667-10.5 23.699-14.379-1.722 4.552-1.96 7.764-1.96 7.764s11.955-9.64 19.234-14.008c8.153-4.892 16.096-9.076 16.096-9.076 5.273-16.99 14.313-30.767 16.643-32.724 0 0 4.763-.762 7.233-.468.463 5.558 6.81 14.416 9.391 17.812-13.186 4.307-24.606 12.888-24.606 12.888s28.972-7.729 54.617-8.588c34.745-1.165 56.158 6.671 56.158 6.671-5.22 7.535-12.287 15.474-12.287 15.474 57.474-19.483 63.475-34.374 94.629-41.07 11.356 1.843 21.642 5.531 21.642 5.531 7.377 7.764 9.124 15.723 9.124 15.723-4.27 33.193-17.664 70.479-17.664 70.479-10.482 12.81-28.534 24.457-28.534 24.457 18.052-2.328 44.84-10.498 44.84-10.498 16.654 12.154 38.52 38.571 47.592 49.944 18.887-52.385 26.315-101.538 28.186-138.368-7.585-3.822-101.92-49.87-244.07-49.87z"/></g><g fill="#FFF"><path d="M320.438 381.996s7.565-11.966 13.323-17.458l-8.085-22.74c-3.035-2.839-5.709-5.657-8.15-8.832a108.055 108.055 0 01-5.786-8.325l-7.997 20.861s7.377 20.575 16.695 36.494zM331.308 394.014s4.659 16.113 18.635 27.177c0 0 20.964-8.735 51.245-11.633 0 0-38.823-15.916-64.056-33.775 0 0-5.435 6.974-5.824 18.231zM444.087 285.117s-13.397 2.6-30.032 2.68c-7.562.035-15.791-.448-23.738-1.934l17.082 7.99c12.33.582 26.788.389 41.637-3.105 7.086-6.6 18.15-18.635 23.974-28.728 0 0 .193-2.718-.003-6.213-.275.315-1.252 1.489-2.806 3.276a272.913 272.913 0 01-4.415 4.954c-5.28 5.784-12.994 13.742-21.7 21.08zM394.976 386.654s1.395-2.196 3.282-5.854c-7.4-6.864-15.511-11.907-15.511-11.907 8.944-.249 16.594 1.07 20.079 1.8.56-1.43 1.106-2.932 1.635-4.488-8.808-7.027-19.45-12.014-19.45-12.014 9.757-1.43 19.31-.718 22.669-.385.24-1.372.43-2.762.587-4.162-10.513-7.19-25.811-11.42-25.811-11.42 6.883-2.237 13.237-3.25 17.3-3.707l-7.694-9.024s-8.637-.388-17.955.34c-12.014.807-23.032 2.379-23.032 2.379-1.831 1.376-4.617 3.59-6.667 5.192-3.732 3.342-5.075 5.183-7.472 8.202l.375 22.182c7.142 3.33 35.156 16.146 57.665 22.866zM513.771 450.307s4.077 9.608 6.697 23.293c2.245 11.728 1.165 18.926 1.165 18.926-37.27-42.704-91.328-68.99-91.328-68.99s74.926 61.726 57.844 141.698v.001c-1.165 13.201-8.151 27.876-8.151 27.876h.001a483.036 483.036 0 0038.578-22.334c20.253-13.024 38.58-27.021 55.157-41.72h.001c-21.015-47.105-59.964-78.75-59.964-78.75zM417.797 262.07c20.408-9.189 35.292-13.246 44.411-15.038a98.977 98.977 0 015.223-.89 71.173 71.173 0 011.966-.251c2.333-.267 3.511-.274 3.511-.274h.004c-27.092-4.78-59.205 8.05-59.205 8.05v.001l2.338 4.802 1.752 3.6z"/></g><g fill="#C8102E"><path d="M428.17 275.235c-3.982 1.62-9.37-.502-11.26-2.54-1.456 2.474-3.106 5.258-3.106 5.258s11.26 5.241 24.459-1.165c8.124-3.943 10.095-11.064 10.095-11.064-4.97.382-9.837 1.006-14.211 1.84-.518 1.954-2.046 6.068-5.978 7.67zM235.42 188.907c73.227-33.32 163.97-48.497 244.58-48.497 80.342 0 171.207 15.13 244.579 48.511V91.747S628.3 41.615 479.999 41.615c-148.301 0-244.58 50.132-244.58 50.132v97.16z"/></g><g fill="#FFF"><path d="M366.876 120.352a622.564 622.564 0 00-20.827 4.253V73.949c-4.253.946-8.5 1.939-12.739 2.973v63.46a617.771 617.771 0 0133.566-7.226v-12.804zM480.461 97.377c1.025 0 2.047.003 3.072.01 3.438 8.463 6.874 16.955 10.312 25.473 4.601.105 9.2.26 13.8.464-3.434-8.595-6.873-17.165-10.308-25.704 1.42.04 2.841.084 4.262.135a5510.8 5510.8 0 016.045-10.726V70.817c-2.01-3.74-4.023-7.469-6.035-11.188a617.826 617.826 0 00-34.146-.252c0 21.153 0 42.305-.002 63.456a618.58 618.58 0 0113-.126v-25.33zm0-25.326c4.73.005 9.462.063 14.193.174V84.75c-4.731-.112-9.462-.171-14.193-.175V72.05zM283.279 129.555a615.71 615.71 0 0114.558-4.693v-12.805a618.334 618.334 0 00-14.558 4.693v-12.524a620.917 620.917 0 0120.398-6.466V84.958a617.886 617.886 0 00-32.846 10.796c0 21.153 0 42.306-.002 63.459a604.02 604.02 0 0112.45-4.333v-25.325zM663.05 125.138a625.442 625.442 0 0113.67 4.417v25.325c4.16 1.4 8.312 2.844 12.448 4.333v-52.495a5322.278 5322.278 0 00-5.783-13.014 617.108 617.108 0 00-27.058-8.744c-1.95 3.07-3.904 6.15-5.858 9.24v52.504a620.733 620.733 0 0112.581 3.756v-25.322zm0-25.326c4.57 1.418 9.126 2.89 13.67 4.419v12.522c-4.544-1.526-9.1-3-13.67-4.416V99.812zM431.01 124.652c2.01-3.813 4.022-7.617 6.035-11.411V71.709a6016.596 6016.596 0 00-6.036-10.512 612.855 612.855 0 00-27.981 2.87 4699.78 4699.78 0 00-6.006 11.737v41.548c2 3.38 4.002 6.77 6.006 10.17a616.829 616.829 0 0127.981-2.87zm-21.067-48.609c4.708-.537 9.42-1.02 14.137-1.45v37.844c-4.718.428-9.43.91-14.137 1.449V76.043zM550.974 63.34a623.01 623.01 0 00-12.944-1.361v63.46c4.319.408 8.633.86 12.944 1.358V63.339zM620.777 128.004V86.472a4927.691 4927.691 0 00-5.932-12.32 619.301 619.301 0 00-33.655-6.557v63.458a616.893 616.893 0 0133.655 6.555c1.98-3.21 3.957-6.413 5.932-9.605zm-12.76-4.69a602.83 602.83 0 00-13.983-2.794V82.675c4.668.878 9.33 1.81 13.983 2.795v37.845z"/></g></svg>