<svg xmlns="http://www.w3.org/2000/svg" viewBox="0 0 960 640"><path fill="#001E62" d="M734.892 524.554c-8.282 0-15.005 6.714-15.005 15.001 0 8.278 6.723 15.001 15.005 15.001 8.281 0 14.995-6.723 14.995-15 0-8.288-6.713-15.002-14.995-15.002zm0 26.784a11.772 11.772 0 01-11.782-11.782c0-6.51 5.264-11.775 11.782-11.775 6.51 0 11.78 5.264 11.78 11.775 0 6.512-5.27 11.782-11.78 11.782zm6.164-15.26a5.085 5.085 0 00-5.09-5.082h-7.228v17.123h3.213v-6.954h2.305l3.247 6.954h3.553l-3.39-7.251a5.095 5.095 0 003.39-4.79zm-5.09 1.872h-4.016v-3.747h4.015c1.033 0 1.878.84 1.878 1.876a1.878 1.878 0 01-1.878 1.871z"/><path fill="#FFF" d="M771.166 316.53l53.506-56.21-30.39-140.103L659.109 80.08l-12.157 11.27C601.75 77.86 520.453 63.905 466.146 64c-201.19.35-359.265 112.223-359.876 254.677C106.27 440.56 211.393 576 467.863 576c203.213 0 385.867-135.284 385.867-135.284L771.166 316.53z"/><path fill="#001E62" d="M753.305 314.974l56.096-58.932-27.054-124.762-119.564-35.493-12.256 11.36C610.167 93.83 523.889 77.913 466.16 78.014c-196.21.34-345.307 107.967-345.88 240.732-.594 139.174 134.391 243.235 347.582 243.235 149.185 0 302.034-79.628 366.626-124.896l-81.184-122.112z"/><g fill="#FFF"><path d="M489.923 362.192h-32.598v27.639l32.598-.038zM688.205 325.462c-25.333-22.308-62.222-45.675-108.927-57.034v103.453c35.25-9.746 73.927-26.29 108.927-46.42zM366.316 375.937V263.812c-32.379 9.362-68.666 27.687-68.666 56.707 0 19.864 30.667 43.842 68.666 55.418zM458.057 277.338h31.681v-26.259l-31.681-1.288z"/><path d="M732.318 327.962s-84.673 57.775-178.02 75.213v-164.04C655.66 251.887 715.7 318.158 715.7 318.158l67.54-69.811-21.69-97.918-92.292-26.99-11.705 12.762c-37.45-14.636-114.713-33.6-200.37-33.6-171.489 0-311.535 97.164-311.786 217.075-.248 116.78 118.62 217.876 310.489 217.876 177.256 0 305.196-84.437 345.266-107.07l-68.835-102.52zm-292.542-30.9V229.87c23.45-1.177 49.472.044 67.88 2.24v64.953h-67.88zm67.88 44.435v67.658c-19.091 2.274-48.2 2.837-67.88 1.383v-69.041h67.88zM391.06 233.775V405.91c-28.256 0-118.441-33.16-118.441-85.398 0-64.575 92.157-82.407 118.441-86.737z"/></g><path fill="#A6192E" d="M727.375 352.23c-110.798 65.062-184.534 77.693-274.494 76.85-126.441-1.193-198.447-51.779-198.447-112.028 0-54.318 66.054-106.087 200.998-106.087 90.79 0 200.274 24.33 258.742 81.962l48.684-49.615-16.624-78.744-71.783-20.975-13.032 14.728c-39.342-15.771-105.839-37.576-208.13-37.576-154.342 0-289.696 89.148-289.696 197.07 0 112.74 117.856 201.142 285.13 201.142 169.642 0 269.217-63.953 326.731-94.124l-48.08-72.604z"/></svg>