<svg xmlns="http://www.w3.org/2000/svg" viewBox="0 0 960 640"><path fill="#003087" d="M729.636 562.769c-8.282 0-15.006 6.713-15.006 15 0 8.279 6.724 15.002 15.006 15.002 8.281 0 14.994-6.723 14.994-15.001 0-8.288-6.713-15.001-14.994-15.001zm0 26.783a11.772 11.772 0 01-11.783-11.782c0-6.51 5.265-11.774 11.783-11.774 6.51 0 11.78 5.264 11.78 11.774 0 6.512-5.27 11.782-11.78 11.782zm6.163-15.259a5.085 5.085 0 00-5.09-5.082h-7.228v17.122h3.213v-6.954H729l3.246 6.954h3.553l-3.389-7.25a5.095 5.095 0 003.39-4.79zm-5.09 1.872h-4.015v-3.747h4.015c1.033 0 1.877.839 1.877 1.875a1.878 1.878 0 01-1.877 1.872z"/><path fill="#003087" d="M480.001 0c-183.2 0-331.699 143.271-331.699 320.007 0 176.728 148.5 319.993 331.7 319.993 183.19 0 331.696-143.265 331.696-319.993C811.698 143.27 663.192 0 480 0z"/><path fill="#FC4C02" d="M480.001 23.577c-170.158 0-308.089 132.716-308.089 296.43 0 163.703 137.931 296.42 308.09 296.42 170.145 0 308.085-132.717 308.085-296.42 0-163.714-137.94-296.43-308.086-296.43z"/><g fill="#003087"><path d="M255.054 390.43v-19.35l-19.12-16.792v37.35c5.833-1.558 13.019.433 19.12-1.208z"/><path d="M768.492 302.401c-27.132 9.517-60.914 20.618-87.097 29.612-8.816-1.435-14.847 3.502-21.103 7.642-9.329 4.031-21.084 2.414-30.287 6.33-8.58 7.092-21.285 10.088-31.817 5.594-2.83-3.224-6.554-7.13-11.008-6.107-7 .694-8.462 13.382-17.126 6.769-5.347 2.817-10.023 6.732-15.932 8.158l-8.898 2.202-3.347 7.136-3.052 6.484-2.043 4.355-3.046 6.485-2.043 4.361-3.059 6.485-2.05 4.358-3.04 6.488-24.502 52.167a11.849 11.849 0 01-7.986 6.488l-39.499 9.414c.185.188.387.357.506.596l26.136 54.27v-49.549a2.463 2.463 0 012.758-2.453l14.183 1.673a2.455 2.455 0 012.179 2.447v89.616c0 1.3-1.015 2.384-2.325 2.457l-15.812.942a2.462 2.462 0 01-2.338-1.339l-30.925-60.298v57.438a2.47 2.47 0 01-.85 1.862 2.454 2.454 0 01-1.95.588l-14.183-1.944a2.469 2.469 0 01-2.133-2.454v-87.956l-16.56 3.948 13.12 83.119a1.964 1.964 0 01-.667 1.798 1.964 1.964 0 01-1.898.38l-15.896-5.174a1.956 1.956 0 01-1.336-1.571l-2.999-18.835-20.8-6.779-3.921 15.512a2.023 2.023 0 01-.959 1.243 2.027 2.027 0 01-1.564.15l-15.208-4.938a1.966 1.966 0 01-1.303-2.364l13.598-53.047-13.174 3.145a4.47 4.47 0 01-3.509-.642 4.438 4.438 0 01-1.918-3.022l-8.095-53.12a4.444 4.444 0 013.786-5.069l132.783-18.28a11.826 11.826 0 009.017-6.507l8.416-17.086 3.167-6.428 2.124-4.316 3.16-6.432 2.13-4.308 3.158-6.429.85-1.72c-6.177-.39-15.244 4.276-19.86 5.312-7.014 2.126-17.628-1.462-20.185 7.79-4.103 3.042-10.872 3.915-15.697 1.574-5.714-8.769-15.69-1.461-22.297-1.349-10.519 1.6-18.878-7.172-28.69-2.162-12.687 7.645-27.832-6.653-38.51 5.416-6.805.516-13.19-2.708-20.505-2.199-10.72-.033-19.973 3.34-29.962 5.129-11.286 7.427-26.798 3.842-39.8 2.883-6.544 2.642-14.646 1.908-21.745 2.09v71.31c0 4.213-2.176 5.393-5.569.506l-13.551-19.47v-51.139c-4.428-2.298-8.151 3.366-12.251 5.12-4.101 1.943-7.702-1.426-9.435-4.79 0-1.798-1.253-3.408-3.045-4.318-2.126-.337-5.83.883-9.067 2.133a258.843 258.843 0 01-3.621-15.049c2.725-1.713 6.051-4.02 5.095-7.093-1.808-3.73-6.739-3.373-8.005-7.867.536-4.464 1.845-10.32 7.156-11.378 3.938-3.727 3.432-11.227 2.215-16.382-3.558-4.646-8.37-8.422-6.421-14.996 0-1.765-1.802-3.922.016-5.535 4.302-1.753 8.571 2.308 11.61 5.198 2.85.585 3.588-2.675 4.788-4.279 1.072-2.272-.707-4.977-3.009-5.526-1.958.513-3.78-.909-3.859-2.698.718-3.006 1.717-5.863 5.152-6.702 3.704-1.287 7.315.141 10.317 2.122 3.548 3.218 3.178 8.383 6.766 11.078 4.613-4.272 1.1-13.022 6.474-17.109 7.665-3.373 15.115-9.077 24.417-7.622 2.51 4.838.827 13.77 8.843 14.13 2.195-1.942 2.37-6.958 6.478-4.977 3.597 1.465 3.366 7.681 7.641 6.802 4.319-8.012-3.875-14.633-2.824-22.278 5.75-3.766 13.373-.519 17.457 3.948 1.829 3.734-5.347 5.857-.387 8.935 7.153-2.678 10.36 5.55 16.666 3.945 4.057-7.463 12.78-8.353 20.075-6.368 10.727-.143 16.947 15.925 28.157 9.556 6.114-4.107 17.989 1.604 19.847-8.171-.73-4.269 2.308-8.227 5.936-9.391 6.028-1.839 11.702 10.67 16.735 1.243 9.385 3.77 20.449 3.615 30.773 5.268 15.882 8.416 36.77 7.232 54.696 7.787 15.585 8.28 37.74-3.525 55.577-.69l8.343-16.958-69.888-150.53v139.959a4.447 4.447 0 01-4.441 4.444h-67.96a4.44 4.44 0 01-3.81-2.156l-44.618-74.415v72.127a4.445 4.445 0 01-4.44 4.444H299.5a4.443 4.443 0 01-4.445-4.444V106.77c-63.658 50.894-104.188 127.511-104.188 213.236 0 153.218 129.438 277.425 289.134 277.425 159.683 0 289.129-124.208 289.129-277.425 0-5.92-.255-11.78-.638-17.606zm-457.468 148.85c0 3.34-2.084 6.111-6.343 2.272l-10.062-9.047c-2.13-1.932-2.712-3.634-2.712-5.88v-3.869c0-2.308-.919-4.246-2.301-5.545l-5.36-4.818c-3.294-2.97-4.031 1.144-4.031 1.144v2.84c0 3.212 1.882 5.712 1.882 5.712l21.04 27.373c4.26 5.555 7.887 13.779 7.887 21.924v16.42c0 14.299-6.002 20.327-12.946 14.134l-28.59-25.75c-5.836-5.26-8.39-13.085-8.39-16.967v-14.9c0-4.864.953-6.379 2.844-4.56l12.487 11.412c1.901 1.537 3.786 4.689 3.786 6.478v3.293c0 2.645-.195 5.704 1.736 7.186l5.403 4.616c1.99 1.792 4.554 2.057 4.554-.85v-3.617c0-2.223-.53-4.048-1.941-5.873l-24.99-32.635c-2.222-2.903-3.878-5.806-3.878-10.737v-25.686c0-6.178 7.446-14.62 18.134-4.993l27.608 24.85c1.726 1.557 4.183 4.963 4.183 10.637v15.436zm43.675 94.894a2.47 2.47 0 01-1.247 2.14c-.773.439-1.719.43-2.483-.017l-30.528-18.105a2.48 2.48 0 01-1.207-2.13v-89.298c0-.89.473-1.7 1.244-2.14a2.454 2.454 0 012.483.02l14.176 8.406a2.458 2.458 0 011.21 2.12v75.49l15.145 8.97a2.487 2.487 0 011.207 2.134v12.41zm214.208 3.968c0 2.45 0 13.958-19.12 17.367l-38.742 6.924a2.499 2.499 0 01-2.02-.542 2.499 2.499 0 01-.886-1.888v-89.157c0-1.19.833-2.195 1.99-2.427l39.658-7.9c19.12-3.802 19.12 7.649 19.12 7.649v69.974zM536.5 420.683v-22.541c0-7.583 18.197-13.733 40.644-13.733 22.446 0 40.646 6.15 40.646 13.732v22.543c0 7.585-18.2 13.726-40.646 13.726-22.447 0-40.644-6.14-40.644-13.726zm82.49 39.96c0 .75-.43 1.441-1.11 1.772l-18.376 8.994a1.95 1.95 0 00-1.098 1.773v18.157c0 .678.347 1.31.926 1.673a1.96 1.96 0 001.908.096l14.9-7.288a1.958 1.958 0 011.911.092c.586.367.94.996.94 1.683v12.755c0 .783-.46 1.488-1.171 1.799l-18.253 8.223a1.96 1.96 0 00-1.161 1.802v16.99c0 .662.34 1.287.9 1.654.562.37 1.263.42 1.881.139l15.016-6.762a1.96 1.96 0 011.881.158c.563.36.906.979.906 1.654v12.681c0 .78-.46 1.485-1.17 1.799l-35.746 16.094a1.981 1.981 0 01-1.885-.14c-.562-.36-.9-.988-.9-1.666v-89.798c0-.75.42-1.431 1.102-1.769l35.749-17.499a1.984 1.984 0 012.85 1.776v13.157zm58.341 38.916l-11.11 7.54c-.87.585-2.04.403-2.676-.437l-16.639-21.765-3.135 2.176v34.231c0 .652-.33 1.267-.87 1.637l-15.17 10.291a1.965 1.965 0 01-2.038.115 1.99 1.99 0 01-1.048-1.745v-88.79c0-.654.317-1.26.856-1.63l29.807-20.568c9.11-6.28 17.083-5.119 17.083 7.351V451.5c0 15.191-11.183 23.531-11.183 23.531l16.573 21.699a1.963 1.963 0 01-.45 2.83zm40.974-112.326c0 2.066-.208 5.095-2.103 7.043l-11.14 11.52c-1.283 1.327-2.08.477-2.08-.952v-6.997c0-3.452-1.346-3.459-3.224-1.547l-1.783 1.835c-2.602 2.695-2.602 6.567-2.602 8.026v4.867c0 3.042.86 5.244 4.044 5.803l8.882 1.548c4.206.734 10.006 3.532 10.006 10.337 0 5.69 0 15.575-7.476 25.455l-18.204 24.04c-7.55 9.937-14.953 7.146-14.953-7.182v-7.983c0-2.54.655-4.087 2.103-5.406l12.142-12.496c2.08-2.1 3.456-2.103 3.456 1.193v3.949c0 4.632 3.61.932 5.175-.622 1.57-1.564 2.434-2.483 2.434-6.207v-2.311c0-2.447-1.902-3.39-5.3-4.15l-10.526-2.364c-8.201-1.72-9.484-7.394-9.484-13.73v-9.037c0-6.792 1.114-12.679 6.048-18.23l19.262-21.246c7.027-7.774 15.323-8.928 15.323 3.17v11.674z"/><path d="M397.528 527.286l-5.645-35.537-7.89 31.13zM650.841 442.839l-6.223 4.292a1.97 1.97 0 00-.847 1.627v15.78c0 .727.4 1.409 1.045 1.746.652.34 1.439.29 2.04-.12l4.293-2.972c2.294-1.577 4.16-5.33 4.16-8.545v-9.2c0-2.648-1.981-4.328-4.468-2.608zM541.474 492.34l-14.209 2.831v59.975l15.085-2.695c7.437-1.336 7.437-9.745 7.437-9.745v-44.29s0-7.735-8.313-6.075zM418.665 66.73a4.45 4.45 0 014.45-4.45h106.703a4.44 4.44 0 014.03 2.578l61.48 132.439 51.22-104.007c-47.09-31.917-104.515-50.726-166.547-50.726-38.301 0-74.84 7.216-108.299 20.195l46.963 90.707V66.73zM621.656 261.252c12.241-3.726 23.488-10.317 33.715-19.533 9.13-3.002 19.758-4.758 29.573-3.33l.915 1.28c-.688 3.734-5.373 6.59-8.594 8.532-6.934.138-15.33-1.068-20.7 4.239-7.497 7.824-16.944 13.131-23.954 20.78.549 2.483 3.386 4.463 1.782 7.274-5.35 3.776-13.905.923-16.748 8.558-2.368 14.643-20.71 3.3-27.89 12.77-3.501 4.597-13.894 10.179-21.748 12.26l-7.523 16.007c8.743 3.095 20.82 7.744 28.845 6.488 18.73-5.999 25.948-34.503 47.842-32.813 12.324 2.162 23.193-1.57 31.774-9.761 8.39-3.185 9.044 10.343 16.772 8.921.671-4.943 1.104-11.044 6.772-13.138 2.685-1.055 6.997-.694 7.348 2.857-5.923 8.376 6.924 11.088 5.102 18.955 1.035 3.366 4.95 3.366 7.662 2.523 4.477-8.558 13.753-9.295 22.26-9.775 6.667-9.765 22.46-.651 26.12-14.375l6.164-2.08c-8.713-72.463-46.47-136.41-101.877-180.845l-81.756 174.03c12.424-4.265 29.788-9.225 38.144-19.824z"/></g><g fill="#FFF"><path d="M489.3 412.665a11.826 11.826 0 01-9.017 6.507L347.5 437.452a4.445 4.445 0 00-3.786 5.07l8.095 53.119a4.438 4.438 0 001.918 3.022 4.47 4.47 0 003.509.642l13.174-3.145 7.85-30.65a1.965 1.965 0 012.384-1.422l25.812 6.313a1.95 1.95 0 011.475 1.6l2.312 14.665 16.56-3.948v-6.653a2.458 2.458 0 012.761-2.45l20.565 2.434c.575.052 1.041.373 1.428.773l39.5-9.414a11.849 11.849 0 007.985-6.488l24.503-52.167-25.83-13.174-8.415 17.086zM500.884 389.15l25.7 13.115 2.05-4.358-25.627-13.072zM538.825 376.221l-25.24-12.88-1.28 2.606-.85 1.72 25.327 12.909zM506.168 378.404l25.525 13.018 2.043-4.361-25.439-12.966zM595.327 197.297L533.848 64.859a4.44 4.44 0 00-4.03-2.58H423.116a4.45 4.45 0 00-4.451 4.451v86.736L371.702 62.76c-27.988 10.862-53.807 25.753-76.647 44.012v161.383a4.443 4.443 0 004.445 4.444h60.583c2.45 0 4.44-1.99 4.44-4.444v-72.127l44.618 74.415a4.44 4.44 0 003.81 2.156h67.96c2.447 0 4.44-1.99 4.44-4.444V128.196l69.889 150.53-8.343 16.956-30.151 61.231 25.131 12.824 3.347-7.136 15.26-32.512 7.523-16.008 15.506-33.005 81.755-174.03c-6.034-4.838-12.287-9.398-18.72-13.756l-51.22 104.007z"/><ellipse cx="577.144" cy="398.14" rx="40.645" ry="13.73"/></g></svg>