<svg xmlns="http://www.w3.org/2000/svg" viewBox="0 0 960 640"><path fill="#0033A0" d="M729.636 562.769c-8.282 0-15.006 6.713-15.006 15 0 8.279 6.724 15.002 15.006 15.002 8.281 0 14.994-6.723 14.994-15.001 0-8.288-6.713-15.001-14.994-15.001zm0 26.783a11.772 11.772 0 01-11.783-11.782c0-6.51 5.265-11.774 11.783-11.774 6.51 0 11.78 5.264 11.78 11.774 0 6.512-5.27 11.782-11.78 11.782zm6.163-15.259a5.085 5.085 0 00-5.09-5.082h-7.228v17.122h3.213v-6.954H729l3.246 6.954h3.553l-3.389-7.25a5.095 5.095 0 003.39-4.79zm-5.09 1.872h-4.015v-3.747h4.015c1.033 0 1.877.839 1.877 1.875a1.878 1.878 0 01-1.877 1.872zM741.544 106.267L787.886 24H632.88l-22.223 21.61L588.434 24H371.572l-22.225 21.61L327.125 24H172.114l46.354 82.267V505.85c0 8.042 0 70.785 75.821 70.785h119.937c43.058 0 64.044 39.364 64.044 39.364h3.46s20.992-39.364 64.05-39.364h119.934c75.82 0 75.83-62.743 75.83-70.785V106.267z"/><path fill="#C8102E" d="M438.824 222.718l267.883 194.01v-194.01z"/><g fill="#FFF"><path d="M253.302 195.399h453.406v10.933H253.302zM253.302 505.851c0 31.864 21.9 35.955 40.987 35.955h119.937c27.294 0 49.38 14.323 65.771 27.48 16.395-13.157 38.483-27.48 65.783-27.48h43.437L253.302 298.524V505.85zM253.302 276l367.014 265.806h15.606l-382.62-277.114zM392.113 222.718l314.594 227.85v-11.302L407.725 222.718zM521.85 438.666l26.538 19.222 7.731-10.665-15.688-11.36 12.508-17.28 15.688 11.365 7.722-10.677-15.678-11.35 12.517-17.273 15.676 11.354 7.728-10.674-26.545-19.222zM388.972 240.956l-24.55-17.769-48.203 66.552 10.854 7.874 21.582-29.807 6.063 4.39-10.19 38.056 10.866 7.862 10.305-38.516c6.802 2.805 14.881.703 19.392-5.508l7.522-10.394c5.267-7.277 3.64-17.458-3.64-22.74zm-8.694 16.913l-4.584 6.315a5.622 5.622 0 01-7.854 1.26l-11.453-8.306 11.173-15.42 11.46 8.298a5.63 5.63 0 011.258 7.853zM603.708 497.946l10.305-38.517c6.796 2.815 14.878.72 19.386-5.504l7.53-10.391c5.27-7.274 3.641-17.458-3.633-22.734l-24.562-17.781-48.213 66.554 10.872 7.875 21.58-29.799 6.052 4.387-10.177 38.054 10.86 7.856zm12.163-76.39l11.46 8.3a5.627 5.627 0 011.261 7.854l-4.578 6.312c-1.816 2.516-5.334 3.076-7.853 1.258l-11.466-8.304 11.176-15.42zM465.548 296.425l-48.209 66.558 10.866 7.868 28.94-39.96-11.491 52.595 10.86 7.866 48.203-66.563-10.857-7.86-28.939 39.949 11.488-52.597zM362.71 323.415l10.864 7.871 13.71-11.018 18.065 13.087-6.184 16.459 10.86 7.868 29.972-79.757-10.851-7.871-66.435 53.36zm46.733-.95l-13.099-9.48 23.868-19.17-10.769 28.65zM541.94 351.745l-9.1-6.59c-7.29-5.272-17.461-3.649-22.737 3.626l-29.107 40.2c-5.276 7.276-3.65 17.453 3.64 22.73l9.096 6.59a16.3 16.3 0 007.585 2.974l-.191 2.382 5.784 4.201 25.778-35.592-21.147-15.323-6.574 9.084 10.287 7.448-8.18 11.286a5.614 5.614 0 01-7.846 1.261l-4.643-3.366c-2.51-1.818-3.08-5.34-1.255-7.847l26.15-36.116a5.628 5.628 0 017.856-1.255l4.64 3.357a5.633 5.633 0 011.266 7.85l-6.382 8.81 10.857 7.869 7.854-10.848c5.27-7.278 3.649-17.452-3.632-22.731zM677.756 450.11c-9.937-7.204-23.831-4.983-31.023 4.957-13.053 18.021 12.133 39.9 5.282 49.364-3.21 4.433-9.41 5.429-13.851 2.209-4.43-3.199-5.423-9.398-2.212-13.84l3.135-4.328-10.857-7.865-3.004 4.136c-7.548 10.434-5.215 25.022 5.218 32.571 10.43 7.549 25.01 5.224 32.562-5.215 12.928-17.84-12.252-39.738-5.28-49.359a8.807 8.807 0 0112.301-1.961c3.942 2.848 4.826 8.353 1.971 12.304l-2.607 3.588 10.857 7.868 2.46-3.409c7.202-9.933 4.988-23.83-4.952-31.02zM356.35 168.556h-19.368v-21.333h19.368v-13.172h-19.368v-21.326h19.368V99.537h-32.777v82.191h32.777zM600.561 144.936h7.475l14.08 36.792h13.41l-14.254-37.243c7.162-1.718 12.472-8.143 12.472-15.831v-12.828c0-8.99-7.28-16.288-16.27-16.288H587.15v82.19h13.41v-36.792zm0-32.211h14.15c3.113 0 5.632 2.513 5.632 5.614v7.798a5.633 5.633 0 01-5.632 5.633h-14.15v-19.045zM270.982 132.385l21.55 49.343h13.415v-82.19h-13.416v49.352l-21.549-49.352H257.58v82.19h13.403zM548.096 181.728h11.222c9.002 0 16.291-7.295 16.291-16.282v-49.62c0-8.99-7.29-16.289-16.291-16.289h-11.223c-8.995 0-16.29 7.3-16.29 16.289v49.62c0 8.987 7.295 16.282 16.29 16.282zm-2.876-63.39c0-3.1 2.516-5.613 5.62-5.613h5.733a5.618 5.618 0 015.624 5.614v44.597a5.623 5.623 0 01-5.624 5.62h-5.733a5.622 5.622 0 01-5.62-5.62v-44.597zM663.694 147.702l6.01-9.654 19.317 43.68h13.41l-24.873-56.264 16.175-25.927h-13.415l-16.624 26.664V99.538h-13.41v82.19h13.41zM493.36 181.728h13.413v-34.026l17.7-48.165h-13.41l-11.004 29.927-11-29.927h-13.41l17.712 48.165zM398.528 181.728l7.028-43.08 7.028 43.08h16.041l13.416-82.19h-13.416l-8.011 49.166-8.03-49.167h-14.056l-8.024 49.167-8.011-49.167h-13.416l13.416 82.191z"/><path d="M634.453 27.863l-23.797 23.145-23.794-23.145H373.141l-23.794 23.145-23.794-23.145H178.736l43.604 77.383v400.605c0 20.123 7.006 66.917 71.949 66.917h119.936c38.514 0 59.905 29.6 65.772 38.964 5.879-9.364 27.27-38.964 65.783-38.964h119.934c64.946 0 71.961-46.794 71.961-66.917V105.246l43.595-77.383H634.453zm85.542 72.756v405.232c0 22.463-9.416 49.236-54.281 49.236H545.78c-30.48 0-52.182 17.132-65.783 30.755-13.58-13.623-35.294-30.755-65.772-30.755H294.29c-44.859 0-54.28-26.773-54.28-49.236V100.62l-31.033-55.08h109.4l30.97 30.116 30.975-30.115h199.364l30.971 30.115 30.968-30.115h109.403l-31.032 55.079z"/></g></svg>