<svg xmlns="http://www.w3.org/2000/svg" viewBox="0 0 960 640"><path fill="#010101" d="M437.926 458.938c-8.281 0-15.005 6.713-15.005 15 0 8.279 6.724 15.002 15.005 15.002 8.282 0 14.995-6.723 14.995-15.001 0-8.288-6.713-15.001-14.995-15.001zm0 26.783a11.772 11.772 0 01-11.782-11.782c0-6.51 5.265-11.775 11.782-11.775 6.51 0 11.78 5.265 11.78 11.775 0 6.512-5.27 11.782-11.78 11.782zm6.164-15.26a5.085 5.085 0 00-5.09-5.082h-7.228v17.123h3.213v-6.954h2.306l3.246 6.954h3.553l-3.389-7.251a5.095 5.095 0 003.39-4.79zm-5.09 1.872h-4.015v-3.747H439c1.032 0 1.877.84 1.877 1.876a1.878 1.878 0 01-1.877 1.871z"/><path fill="#010101" d="M604.217 80H137.66v22.021c0 34.088 13.324 66.103 36.125 89.315H137.66v22.026c0 34.08 13.324 66.1 36.125 89.298H137.66v22.03c0 34.073 13.324 66.089 36.125 89.312H137.66v22.023C137.66 504.383 189.988 560 254.316 560h108.197l73.438-124.153c41.313 50.369 103.245 80.392 168.266 80.392 120.271 0 218.123-97.84 218.123-218.112C822.34 177.85 724.488 80 604.217 80z"/><path fill="#FFF" d="M604.217 87.504H145.16v14.517c0 40.326 19.31 75.9 48.561 96.815h-48.56v14.527c0 40.312 19.31 75.88 48.56 96.801h-48.56v14.527c0 40.313 19.31 75.88 48.56 96.8h-48.56v14.534c0 64.217 48.966 116.467 109.155 116.467h103.921l76.664-129.608c39.678 53.75 102.35 85.855 169.316 85.855 116.134 0 210.617-94.482 210.617-210.612 0-116.138-94.483-210.623-210.617-210.623z"/><path fill="#010101" d="M604.217 102.021h-440.34c0 56.313 42.369 101.958 94.636 101.958h165.873c2.583 0 4.683 2.1 4.683 4.689s-2.1 4.694-4.683 4.694H163.878c0 56.305 42.368 101.949 94.635 101.949h100.02c2.584 0 4.691 2.1 4.691 4.698 0 2.576-2.107 4.682-4.69 4.682H163.877c0 56.302 42.368 101.948 94.635 101.948h34.168a4.69 4.69 0 014.687 4.69 4.696 4.696 0 01-4.687 4.696H163.877c0 56.295 42.368 101.945 94.635 101.945h91.448l170.945-289.023c16.84-28.466 47.84-47.557 83.311-47.557 53.424 0 96.733 43.309 96.733 96.737 0 53.413-43.309 96.733-96.733 96.733-52.754 0-95.64-42.238-96.71-94.74L442.82 409.498c35.381 51.172 94.465 84.722 161.397 84.722 108.299 0 196.095-87.8 196.095-196.093 0-108.308-87.796-196.106-196.095-196.106z"/><path fill="#FA4616" d="M604.217 242.473c-30.736 0-55.645 24.916-55.645 55.654 0 30.725 24.909 55.643 55.645 55.643 30.74 0 55.652-24.918 55.652-55.643 0-30.738-24.912-55.654-55.652-55.654z"/></svg>