<svg xmlns="http://www.w3.org/2000/svg" viewBox="0 0 960 640"><path fill="#010101" d="M527.221 583.52c-8.281 0-15.005 6.714-15.005 15.002 0 8.277 6.724 15 15.005 15 8.282 0 14.995-6.723 14.995-15 0-8.288-6.713-15.001-14.995-15.001zm0 26.784a11.772 11.772 0 01-11.782-11.782c0-6.51 5.265-11.775 11.782-11.775 6.51 0 11.78 5.265 11.78 11.775 0 6.512-5.27 11.782-11.78 11.782zm6.164-15.26a5.085 5.085 0 00-5.09-5.082h-7.228v17.123h3.213v-6.954h2.306l3.246 6.954h3.553l-3.389-7.251a5.095 5.095 0 003.39-4.79zm-5.09 1.872h-4.015v-3.747h4.015c1.032 0 1.877.84 1.877 1.876a1.878 1.878 0 01-1.877 1.871z"/><path fill="none" d="M731.938 177.633l-61.063 97.544c6.675-3.1 13.715-6.312 20.736-9.512l65.165-105.41S645.923 184.469 545.02 194.7c2.402 3.742 4.75 7.51 7.078 11.33 69.285-7.313 141.575-20.736 179.84-28.398z"/><path fill="none" d="M713.266 384.516l-3.086-3.953c34.329-61.473 59.18-134.832 59.18-143.61 0-2.128-.983-2.759-2.262-2.096-54.616 27.69-114.595 52.392-127.861 61.659l-3.557 4.914c-29.368-26.167-54.562-44.568-64.31-51.425-61.056-119.8-154.723-204.007-215.066-234.17 0 12.51 59.727 104.456 68.879 181.717-108.04-7.363-245.079-37.297-245.079-37.297L298.096 351.13c-96.9 5.938-181.91 7.944-181.91 7.944 0 6.737 108.208 58.48 267.967 94.61 34.935 7.92 60.96 6.665 77.975 6.665a654.301 654.301 0 00-9.52-10.236c23.16 14.121 44.28 28.199 63.298 40.851-4.772.065-9.972.086-15.703.086-38.414 0-67.453-2.003-85.837-3.386-4.555-.35-8.479-.642-11.694-.87-1.632-.1-3.068-.178-4.344-.25l-18.074-28.868c-7.288-1.61-14.256-3.308-19.064-4.483l24.15 39.047c-22.557 16.224-80.48 65.394-122.436 133.93l3.668 6.765s40.537-2.516 74.805-3.485c0 0 15.369-43.838 70.327-94.562l56.74 91.746 68.829-111.341c4.458-.478 8.952-1.005 13.568-1.561 4.765 2.986 9.363 5.788 13.743 8.311-2.352 1.404-4.33 3.208-5.852 5.91 0 0 3.963 2.715 4.22 8.061 0 0 3.403.549 6.957-.456 0 0 2.423-3.678 4.523-8.119 4.512 2.303 8.756 4.305 12.734 5.895-.036 3.842.61 6.686.61 6.686s4.394 1.34 9.672-3.364c30.509 6.95 48.739 1.055 48.739 1.055 30.964 9.167 46.707-1.084 46.707-1.084 12.128 5.275 22.268 8.319 55.481 8.319 18.024 0 23.976-2.189 23.976-5.225 0-14.485-15.336-73.805-30.655-104.313-8.432-35.069-9.808-41.473-28.43-50.893z"/><path fill="none" d="M820.149 255.522l-7.77 13.85 1.693 10.596c-34.867 68.583-73.687 130.654-73.687 130.654l4.794 11.644 5.677-3.938 3.878.339s37.166-35.545 84.518-127.326c0 0 13.7.46 14.823-10.65 1.108-11.234 1.882-19.042 1.882-23.54-17.054-6.199-35.808-1.63-35.808-1.63zM750.635 424.622l1.101 4.044s9.937 6.779 17.115 8.781l5.734-4.134s-3.3-4.22-2.263-10.405c-7.459-4.837-21.687 1.714-21.687 1.714z"/><path fill="#FFF" d="M815.661 249.602l-10.396 18.508 1.714 10.753c-27.51 53.878-57.513 103.881-68.259 121.477-4.166-9.445-9.658-15.026-20.286-20.71 0 0 48.817-88.575 62.018-158.822-36.924 18.287-75.6 36.374-75.6 36.374l66.155-107.024s-127.212 27.828-227.85 37.867C434.667 28.192 336.024 0 336.024 0s68.323 111.876 81.026 190.1c-138.357-12.988-251.188-39.942-251.188-39.942l120.465 194.857c-70.49 4.184-189.084 8.02-189.084 8.02 30.23 30.226 127.469 68.543 256.07 100.315l22.946 37.138c-75.633 57.01-121.224 135.505-121.224 135.505L262.676 640s37.537-2.245 83.58-3.885c0 0 12.532-40.459 64.058-90.534l58.13 94.034 72.899-117.913 7.937-.92 4.405 2.645c-1.205 1.204-2.017 3.528-3.75 6.294 6.049 4.113 6.223 4.797 6.512 12.118 0 0 8.052 2.837 18.002-.428l2.77-4.997 3.389 1.533c.424 3.542 1.408 7.399 1.408 7.399 9.273 4.362 17.122-1.433 17.122-1.433 24.756 5.09 41.503 2.188 47.052.841 24.496 6.743 40.353 2.181 46.925-.67 11.262 4.655 22.93 7.677 55.26 7.677 14.905 0 30.787-.92 30.787-12.04 0-15.61-14.923-72.92-30.06-104.633 0 0 11.113 7.82 21.086 9.815l13.842-10.015c-6.287-7.391-5.093-9.551-4.252-15.277-4.936-4.184-11.847-5.154-11.847-5.154 13.533-15.535 41.803-51.775 75.598-116.637 7.106-1.076 16.21-5.25 17.303-16.441 1.205-12.185 1.925-17.439 1.925-29.018-21.395-9.798-47.096-2.76-47.096-2.76z"/><g fill="#010101"><path d="M731.938 177.633l-61.063 97.544c6.675-3.1 13.715-6.312 20.736-9.512l65.165-105.41S645.923 184.469 545.02 194.7c2.402 3.742 4.75 7.51 7.078 11.33 69.285-7.313 141.575-20.736 179.84-28.398z"/><path d="M741.696 435.409c-8.432-35.069-9.808-41.473-28.43-50.893l-3.086-3.953c34.328-61.473 59.18-134.831 59.18-143.61 0-2.128-.983-2.759-2.262-2.095-54.616 27.689-114.596 52.391-127.861 61.658l-3.557 4.915c-29.368-26.168-54.562-44.569-64.31-51.426-61.056-119.799-154.723-204.007-215.066-234.17 0 12.51 59.727 104.456 68.879 181.718-108.041-7.364-245.079-37.298-245.079-37.298L298.096 351.13c-96.9 5.938-181.91 7.944-181.91 7.944 0 6.737 108.208 58.48 267.967 94.61 34.935 7.92 60.96 6.665 77.975 6.665a654.301 654.301 0 00-9.52-10.236c23.16 14.121 44.28 28.199 63.298 40.851-4.772.065-9.972.086-15.703.086-38.414 0-67.453-2.003-85.837-3.386-4.555-.35-8.479-.642-11.694-.87-1.632-.1-3.068-.178-4.344-.25l-18.074-28.868c-7.288-1.61-14.256-3.308-19.064-4.483l24.15 39.047c-22.557 16.224-80.48 65.394-122.436 133.93l3.668 6.765s40.537-2.516 74.805-3.485c0 0 15.369-43.838 70.327-94.562l56.74 91.746 68.829-111.341c4.458-.478 8.952-1.005 13.568-1.561 4.765 2.986 9.363 5.788 13.743 8.311-2.352 1.404-4.33 3.208-5.852 5.91 0 0 3.963 2.715 4.22 8.061 0 0 3.403.549 6.957-.456 0 0 2.423-3.678 4.523-8.119 4.512 2.303 8.756 4.305 12.734 5.895-.036 3.842.61 6.686.61 6.686s4.394 1.34 9.672-3.364c30.509 6.95 48.739 1.055 48.739 1.055 30.964 9.167 46.707-1.084 46.707-1.084 12.128 5.275 22.268 8.319 55.481 8.319 18.024 0 23.976-2.189 23.976-5.225 0-14.485-15.336-73.805-30.655-104.313zM468.443 573.388l-32.432-51.408c12.584-.229 36.552-.977 67.011-3.429l-34.579 54.837z"/><path d="M750.635 424.622l1.101 4.044s9.937 6.779 17.115 8.781l5.734-4.134s-3.3-4.22-2.263-10.405c-7.459-4.837-21.687 1.714-21.687 1.714zM820.149 255.522l-7.77 13.85 1.693 10.596c-34.867 68.583-73.687 130.655-73.687 130.655l4.794 11.643 5.677-3.938 3.878.339s37.166-35.545 84.518-127.326c0 0 13.7.46 14.823-10.65 1.108-11.234 1.882-19.042 1.882-23.54-17.054-6.199-35.808-1.63-35.808-1.63z"/></g><g fill="#E57200"><path d="M425.254 522.928c-.926.77-1.768 1.554-2.676 2.338l45.865 73.256 50.945-81.397c-1.468.15-2.958.279-4.412.4l-46.533 74.396-43.189-68.993zM724.425 182.822l-59.563 95.164c1.975-.927 3.97-1.842 6.013-2.808l61.063-97.545c-38.264 7.663-110.554 21.085-179.84 28.398.693 1.14 1.373 2.292 2.064 3.436 65.22-7.029 132.609-19.278 170.263-26.645zM402.673 486.795l-17.575-28.056c-1.607-.35-3.233-.692-4.843-1.062l18.073 28.869c1.276.071 2.712.15 4.345.25zM565.293 533.306c4.701-6.344 7.891-10.392 8.647-12.937-4.149 1.803-9.463 2.794-12.357 7.2 0 0 2.114 2.06 3.71 5.737zM589.457 537.662s3.137-.407 5.881-3.158c0 0-2.912-4.505-4.65-8.696-2.068 5.267-1.23 11.854-1.23 11.854zM574.966 426.591c2.51 19.973 7.306 28.442 7.306 28.442s7.528 5.894 21.862 11.76c-14.477-26.78-29.168-40.202-29.168-40.202zM418.162 515.714l5.767-3.229s23.683 3.82 165.604-10.82c-3.38-2.46-5.054-1.975-5.054-7.62 0-1.804.306-2.103-2.788-2.103-3.086 0-4.412-.82-8.065-.82-4.551 0-11.34 4.562-80.88 4.562-55.331 0-94.101-4.647-96.66-4.647-2.527 0-7.51 4.74-22.329 16.658 0 0 29.14-.378 44.405 8.02zM345.822 604.616c-21.324-4.077-65.361 3.286-65.361 3.286l-11.801 17.015 68.929-3.236 8.233-17.065zM820.003 277.526c-23.046 41.386-48.115 96.244-75.54 130.178l7.904-4.954 1.732-1.715-1.429 4.655 3.35-1.593-5.04 8.881 4.695-3.767s23.458-26.38 82.782-133.541c-13.194-2-18.454 1.856-18.454 1.856zM822.426 261.449l-4.808 7.605s11.615-2.216 27.073-.923l5.595-7.883c-17.025-3.212-27.86 1.2-27.86 1.2z"/><path d="M749.249 408.488s-2.192 1.778-5.6 2.726l2.894 6.13 1.786-1.379-.713-2.206 2.98-5.678-1.347.407zM769.824 424.394c-4.822-2.509-14.213 1.206-14.213 1.206s9.53 2.231 14.915 4.684c0 0-.955-2.196-.702-5.89z"/></g><g fill="#006272"><path d="M402.673 486.795c3.214.228 7.138.52 11.693.87l-16.687-26.453c-3.885-.67-8.183-1.546-12.581-2.473l17.575 28.056zM436.01 521.98c-6.304.1-9.768.092-9.768.092-.35.285-.653.578-.988.856l43.19 68.993 46.532-74.396c-4.092.385-8.062.74-11.954 1.026l-34.579 54.837-32.433-51.408zM707.42 194.459l-57.077 90.523c4.294-2.146 9.223-4.505 14.52-6.996l59.562-95.164c-37.654 7.367-105.043 19.616-170.262 26.645a434.331 434.331 0 014.63 7.787c53.592-5.905 108.493-15.24 148.628-22.795zM426.391 216.424c0-4.22-.192-8.486-.573-12.82-37.124 3.928-59.25 12.695-67.75 16.676 13.027-3.631 36.14-4.744 68.323-3.856zM708.505 387.58s-45.157-63.382-131.992-127.329c7.378 15.261 14.246 31.025 20.425 47.306.877 2.288.746 4.284-1.204 4.284-19.018 0-86.165-36.93-152.125-30.313 34.258 32.622 68.316 78.4 35.292 61.709 0 0 34.482 21.28 74.98 63.957 30.17 0 36.169 5.09 37.943 9.309 3.436 8.144 8.436 22.612 28.188 45.907 9.067 0 10.725-.592 14.046-8.74 0 0 2.47 10.4-2.07 18.028 41.168 32.526 121.106 65.294 133.327 65.294 4.919 0-5.21-44.736-28.362-98.532-7.563-34.075-11.737-43.626-28.448-50.88zM333.27 348.84s11.775 6.928 31.11 21.52c-4.747-8.216-17.271-17.158-30.982-25.48l-30.088 2.206 2.22 3.592c9.192-.587 18.44-1.211 27.74-1.839zM510.467 401.538c-4.765 25.745.221 46.41.221 46.41-.816-8.605 5.967-37.461 5.967-37.461l-6.188-8.95zM495.349 386.84c-4.744 29.542 1.939 53.11 1.939 53.11-1.426-10.857 4.237-42.824 4.237-42.824l-6.176-10.286zM480.39 373.474c-4.893 31.574 2.734 56.788 2.734 56.788-1.419-14.365 3.454-47.835 3.454-47.835l-6.188-8.953zM446.357 321.371s-58.062-48.047-130.142-60.147c-2.605 0-7.816 10.956-7.816 10.956s7.631-6.882 9.951-6.882c61.726 11.882 128.007 56.073 128.007 56.073z"/></g><g fill="#FFF"><path d="M611.865 526.962c8.408-4.982 14.57-9.722 14.57-9.722-27.729 1.211-38.179-2.168-38.179-2.168 4.962-4.953 11.16-9.223 15.084-13.144-2.987.471-6.056.799-9.053 1.055-.036 1.348-1.515 2.88-5.745 5.446a942.586 942.586 0 01-24.5 3.614c2.278 2.424 4.708 4.783 7.407 7.022 1.878-.614 3.88-1.22 6.02-1.946 0 1.696-.453 3.656-1.102 5.617a61.08 61.08 0 0011.205 5.994c.435-2.716 1.251-5.553 2.898-8.119 1.404.392 2.167 4.498 2.955 5.624 2.056 3.009 4.758 3.5 5.26 5.98 11.626 2.674 26.374 3.415 45.823.97l5.396-4.376c-28.455.513-38.04-1.846-38.04-1.846zM565.778 485.256c-12.435 3.97-17.778 1.19-17.778 1.19 2.438-2.43 4.014-7.2 4.014-7.2-11.006 3.073-14.42.015-14.42.015 1.746-1.055 3.51-5.275 3.51-5.275-14.285 0-22.09 2.353-22.09 2.353 11.865 1.49 19.638 6.7 26.242 13.436 9.306-.663 15.001-1.497 18.99-2.146l1.532-2.373z"/><path d="M541.703 478.05s6.027.363 13.009-2.125c0 0 .37 4.676-2.791 8.874 0 0 5.906-.042 18.045-2.85 0 0-1.048 2.423-2.513 5.131 2.196-.363 3.85-.598 5.592-.598 3.903 0 4.37.82 7.795.82 6.458 0 7.253 1.34 8.208 8.86 1.308 1.917 2.823 3.215 3.856 4.334 4.78-.371 10.286-.891 15.824-1.676 0 0-6.162 8.554-15.46 14.855 0 0 25.803 2.431 39.168.756 0 0-5.77 7.043-13.707 11.091 0 0 17.835 1.14 36.991.813 0 0-3.76 4.156-7.505 7.178 0 0 23.672 5.34 40.509 1.333-60.81-24.186-94.277-60.796-145.172-60.796-.755 2.146-1.85 4-1.85 4zM296.37 587.516l-13.678 17.514s40.217-6.273 64.335-2.61l6.696-11.483c-13.15-6.814-57.352-3.421-57.352-3.421z"/><path d="M302.622 579.675l-4.237 5.31s41.517-3.157 56.664 3.842l9.851-14.826c-13.422-2.174-62.278 5.674-62.278 5.674zM309.81 570.879l-4.832 5.866s49.726-7.748 61.487-4.89l.873-1.197c-12.31-4.056-57.527.22-57.527.22zM326.562 551.633l-14.502 16.53s40.31-4.185 56.857.463l16.72-19.317c-16.98-2.794-59.075 2.324-59.075 2.324zM348.188 529.885l-19.106 18.96s35.248-4.775 58.496-1.724l9.139-10.094c-8.707-7.427-48.529-7.142-48.529-7.142z"/><path d="M351.813 526.577l-1.001.906s34.382-.528 47.576 7.712l1.982-2.088c-10.667-6.06-48.557-6.53-48.557-6.53zM370.813 510.154l-16.416 14.1s38.3.698 47.701 7.02l14.114-13.92c-12.406-7.043-45.399-7.2-45.399-7.2zM348.858 603.96l.52 3.472 5.486-9.63-.534-3.33zM356.165 591.422l.563 3.329 9.231-13.486-.603-3.807zM367.27 574.75l.65 3.977.887-1.14-.763-3.9zM369.94 571.178l.78 4.049 15.7-17.67-.659-4.82zM387.796 550.45l.688 4.854 9.49-10.144-1.2-4.64zM398.663 538.467l1.212 4.697 1.846-1.924-.656-5.382zM403.129 533.677l.677 5.446 12.47-12.232-.153-6.337z"/></g></svg>