<svg xmlns="http://www.w3.org/2000/svg" viewBox="0 0 960 640"><path fill="#041E42" d="M461.02 570.855v11.825h-2.956v-11.825h-3.423v-2.937h9.802v2.937h-3.422zm16.024 11.825v-8.713l-2.49 5.428h-2.612l-2.49-5.428v8.713h-2.956v-14.762h2.956l3.796 7.883 3.796-7.883H480v14.762h-2.957z"/><path fill="#041E42" d="M830.31 40H251.4c38.347 59.818 51.096 79.49 18.481 78.554L221.79 40h-92.1l209.192 341.732c-2.818-.116-5.677-.291-8.458-.291-85.747 0-152.913 47.996-152.913 109.287 0 61.276 67.166 109.272 152.913 109.272 85.751 0 152.921-47.996 152.921-109.272 0-15.509-4.321-30.453-12.842-44.44l-46.88-76.568s37.738 7.584 66.057-5.497l-13.667-17.6s57.533 5.337 110.54-10.463l-17.97-19.052s80.679-2.054 136.596-73.784h-5.575s41.648-20.09 59.203-64.515h-5.425s26.691-19.871 35.782-60.711h-7.87S823.694 88.206 830.31 40z"/><path fill="#FFF" d="M815.99 50.086H270.156c44.724 67.765 31.528 78.68-5.865 78.68l-48.161-78.68h-68.427l210.186 343.37c-8.979-1.192-18.115-1.925-27.465-1.925-80.09 0-142.817 43.568-142.817 99.197 0 55.614 62.727 99.17 142.817 99.17 80.091 0 142.83-43.556 142.83-99.17 0-13.628-3.82-26.807-11.373-39.178l-59.516-97.223s41.4 13.635 70.416 4.585l-18.338-23.62s68.355 5.68 114.066-3.553l-21.75-23.07s101.798-1.012 139.788-63.872h-17.425s47.99-6.698 72.213-58.537h-17.742s41.299-19.026 52.501-62.299h-19.168s42.867-28.459 59.064-73.875z"/><path fill="#FFB81C" d="M804.596 57.177H282.8c30.916 47.063 36.793 81.718-22.604 78.466l-48.04-78.466h-51.806l211.781 345.95a195.42 195.42 0 00-41.706-4.51c-74.841 0-135.732 41.31-135.732 92.11 0 50.768 60.89 92.089 135.732 92.089 74.85 0 135.747-41.321 135.747-92.088 0-12.304-3.473-24.241-10.334-35.483l-68.987-112.71s43.478 15.203 73.546 12.017c0 0-13.637-16.878-19.72-27.368 0 0 49.474 5.947 114.091.31l-24.24-25.71c1.98.041 4.088.071 6.362.071 104.817 0 136.382-53.72 136.382-53.72h-28.564s70.782-18.037 85.91-58.54H704.37s55.997-27.452 61.467-58.548H733.88s55.838-31.512 70.716-73.87z"/><path fill="#003087" d="M792.512 64.694h-496.3c41.131 67.185-.055 82.312-40.366 78.241L207.95 64.694h-34.187l214.595 350.558c-17.405-5.82-37.082-9.125-57.933-9.125-70.82 0-128.227 37.872-128.227 84.6 0 46.707 57.407 84.572 128.227 84.572s128.224-37.865 128.224-84.571c0-11.164-3.282-21.81-9.234-31.579L369.866 329.2s51.392 17.832 75.107 17.832c0 0-10.802-13.77-17.32-28.596 0 0 61.562 6.636 110.869 2.784l-26.809-28.422s7.996 1.545 25.176 1.545c86.756 0 120.011-38.688 120.011-38.688H398.933l-3.771-6.162H609.2s87.22-16.659 108.271-52.383H363.09l-3.767-6.153H685.51s60.726-29.309 69.45-52.387H327.258l-3.772-6.168H716.56s57.278-29.793 75.953-67.707z"/></svg>