<svg xmlns="http://www.w3.org/2000/svg" viewBox="0 0 960 640"><path fill="#00205B" d="M617.545 595.888v11.824h-2.957v-11.824h-3.423v-2.937h9.803v2.937h-3.423zm16.023 11.824V599l-2.49 5.428h-2.612l-2.49-5.428v8.713h-2.956V592.95h2.956l3.796 7.883 3.796-7.883h2.956v14.761h-2.956z"/><path fill="#00205B" d="M763.095 251.614a1.02 1.02 0 00-.521-1.456c-8.529-3.2-16.572-5.414-24.713-6.572a.96.96 0 01-.73-1.386c6.672-13.378 10.989-28.748 14.208-45.402.138-.717-.515-1.35-1.221-1.166-15 3.896-32.17 10.949-46.454 17.773a.935.935 0 01-1.322-.64c-2.1-9.25-4.594-19.686-9.717-28.728a1.01 1.01 0 00-1.463-.31c-15.114 10.936-28.62 22.96-40.383 36.164a.969.969 0 01-1.561-.152c-3.032-5.004-6.982-9.478-12.192-13.227a.964.964 0 00-1.31.175c-19.406 24-43.829 51.262-75.347 73.836-.654.468-1.55-.17-1.316-.94 7.155-23.404 17.929-45.707 28.43-66.187a.959.959 0 00-.632-1.377c-4.42-1.001-10.314-1.563-15.9-1.879a.943.943 0 01-.73-1.476c13.285-19.698 23.441-43.656 29.88-65.198a.935.935 0 00-.934-1.203c-11.104.496-24.513 2.994-35.615 6.845a.919.919 0 01-1.214-1.037c3.245-18.613 1.741-39.487-1.807-58.83a.964.964 0 00-1.284-.736c-7.836 2.952-16.813 7.472-24.981 12.406a.945.945 0 01-1.44-.88c1.229-17.5-.709-36.841-4.46-52.422a.919.919 0 00-1.193-.658c-5.703 1.983-12.409 5.495-18.808 9.314a.962.962 0 01-1.41-.518c-6.023-17.63-15.688-34.777-26.104-51.81a1 1 0 00-1.702 0c-10.417 17.033-20.081 34.18-26.104 51.81a.962.962 0 01-1.41.518c-6.4-3.82-13.106-7.33-18.808-9.314a.92.92 0 00-1.193.658c-3.752 15.58-5.689 34.922-4.46 52.421a.945.945 0 01-1.44.88c-8.168-4.933-17.145-9.453-24.982-12.405a.964.964 0 00-1.283.736c-3.548 19.343-5.053 40.217-1.807 58.83a.92.92 0 01-1.214 1.037c-11.102-3.85-24.511-6.35-35.615-6.845a.935.935 0 00-.934 1.203c6.439 21.542 16.595 45.5 29.88 65.198a.943.943 0 01-.73 1.476c-5.586.316-11.48.878-15.9 1.88a.96.96 0 00-.633 1.376c10.52 20.514 21.31 42.855 28.465 66.302.227.743-.625 1.369-1.262.925-27.922-19.522-54.716-48.162-75.435-73.932a.963.963 0 00-1.311-.178c-5.21 3.749-9.159 8.223-12.191 13.226a.968.968 0 01-1.56.152c-11.764-13.204-25.27-25.228-40.385-36.164a1.009 1.009 0 00-1.461.31c-5.124 9.042-7.618 19.479-9.719 28.729a.935.935 0 01-1.321.639c-14.284-6.824-31.454-13.877-46.454-17.773-.707-.183-1.36.45-1.221 1.166 3.22 16.654 7.536 32.024 14.209 45.402a.96.96 0 01-.732 1.387c-8.14 1.157-16.184 3.37-24.712 6.57a1.02 1.02 0 00-.521 1.457c10.028 17.246 21.6 31.473 34.916 42.577a.958.958 0 01-.129 1.567 79.491 79.491 0 00-14.722 11.33 1.003 1.003 0 00.001 1.428 355.443 355.443 0 0055.257 44.44 1 1 0 01.061 1.632c-7.366 5.699-13.854 11.614-19.42 18.268a1.004 1.004 0 00.107 1.39c14.483 12.817 31.065 23.201 50.315 31.059a.99.99 0 01.215 1.714c-6.847 5.147-12.412 10.84-17.533 17.002a.999.999 0 00.304 1.522c13.757 7.07 30.454 11.64 47.773 14.774.787.143.85 1.23.085 1.468-22.116 6.844-42.43 15.687-61.878 26.516a1.001 1.001 0 00-.109 1.672c14.255 10.588 28.792 19.817 45.708 26.412a.982.982 0 01.268 1.682c-23.118 18.843-42.022 40.534-58.533 64.13-.494.706.097 1.672.953 1.563 23.56-2.997 45.485-6.678 64.377-11.856a.944.944 0 011.098 1.342c-4.047 8.076-7.696 16.672-11.026 25.69-.257.696.32 1.428 1.057 1.348 21.244-2.302 40.552-4.999 55.957-8.494.862-.196 1.506.751 1.021 1.49-6.517 9.927-11.135 20.671-14.845 32.473-.226.718.41 1.427 1.148 1.286 37.242-7.113 71.133-17.769 101.198-32.198.812-.39 1.741.169 1.802 1.068 1.811 26.704 11.933 45.274 25.79 60.195.514.553 1.383.58 1.937.069l19.456-17.96c.59-.545.645-1.453.117-2.057-3.848-4.4-21.556-24.496-18.423-39.775.373-1.82 2.393-2.793 4.086-2.027 22.432 10.148 68.923 25.646 105.428 32.693.72.14 1.327-.555 1.107-1.256-3.712-11.817-8.333-22.573-14.857-32.51-.485-.74.159-1.687 1.021-1.49 15.405 3.494 34.713 6.191 55.957 8.493.738.08 1.314-.652 1.057-1.349-3.33-9.017-6.979-17.613-11.025-25.689a.944.944 0 011.097-1.342c18.892 5.178 40.816 8.86 64.377 11.856.855.109 1.447-.857.952-1.564-16.51-23.594-35.414-45.286-58.532-64.13a.982.982 0 01.268-1.681c16.916-6.595 31.452-15.824 45.708-26.412a1 1 0 00-.109-1.672c-19.447-10.829-39.762-19.672-61.878-26.516-.765-.237-.702-1.325.086-1.468 17.318-3.134 34.015-7.705 47.772-14.774a.998.998 0 00.304-1.522c-5.121-6.163-10.686-11.855-17.534-17.002a.99.99 0 01.216-1.714c19.25-7.858 35.832-18.242 50.315-31.06.403-.355.451-.977.106-1.389-5.565-6.654-12.053-12.57-19.42-18.268a1 1 0 01.061-1.632 355.45 355.45 0 0055.258-44.44c.396-.39.4-1.04 0-1.427a79.492 79.492 0 00-14.721-11.33.958.958 0 01-.13-1.568c13.318-11.104 24.89-25.331 34.917-42.577z"/><g fill="#FFF"><path d="M476.286 252.452c.17.107.272.29.276.493.133 7.407.316 14.233.557 20.87.01.25.213.448.465.45l5.28.023h.004a.477.477 0 00.475-.498c-.193-4.66-.374-9.373-.535-14.007a.777.777 0 01.309-.644c25.033-18.959 44.808-41.09 54.254-60.724l-.275-.148c-11.61 19.423-29.814 38.067-54.107 55.415-.144.096-.385.018-.391-.195-.936-29.732-.93-54.243.02-74.939.081-2.79.153-5.714.223-8.942a.958.958 0 01.488-.814c10.694-6.006 20.467-13.828 29.878-23.913l-.218-.224c-10.36 9.068-20.058 15.768-29.652 20.483a.286.286 0 01-.325-.056.278.278 0 01-.08-.202c.643-36.684-.215-79.496-1.995-99.585l-.312.015a1647.65 1647.65 0 01-.742 64.978.192.192 0 01-.196.184s-.09-.01-.136-.06c-8.82-9.316-16.928-19.703-24.098-30.871l-.27.156c5.935 11.412 13.798 22.951 24.039 35.278.32.385.488.873.47 1.374a1586.417 1586.417 0 01-1.977 41.592c-.228 4.622-.43 9.51-.637 15.386-.007.2-.231.277-.363.186-11.28-8.01-21.658-19.014-30.013-31.823l-.27.159c7.41 13.917 17.438 25.76 29.81 35.199.435.332.684.853.668 1.395a1123.55 1123.55 0 00-.44 48.496.142.142 0 01-.04.101.15.15 0 01-.176.024c-22.197-13.549-40.58-31.11-54.638-52.197l-.265.163c12.635 22.358 32.659 43.287 54.935 57.422zM316.221 311.101a.483.483 0 00.208-.046l3.608-1.705a.411.411 0 00.23-.3.41.41 0 00-.107-.362 514.015 514.015 0 00-3.984-4.109 1.575 1.575 0 01-.448-1.08c-.245-14.006-4.919-26.427-13.892-36.92l-.25.189c6.777 10.204 10.064 21.052 10.047 33.162 0 .026-.026.034-.052.023-8.587-8.557-17.948-17.313-27.823-26.029a1.304 1.304 0 01-.433-1.085c.869-10.327-.884-20.079-5.21-28.988l-.288.12c3.019 8.655 3.759 17.349 2.264 26.574l-.152.055c-10.923-10.052-22.984-21.991-36.867-36.496l-.233.209c11.673 13.914 25.459 28.594 42.148 44.879a306.051 306.051 0 017.936 7.69c-1.629.122-3.286.181-4.926.181-11.465.001-23.065-2.866-35.46-8.766l-.149.274c13.104 8.01 26.905 11.904 42.193 11.904.514 0 1.03-.005 1.564-.014.237 0 .459.092.621.256 5.54 5.635 11.785 12.252 19.091 20.224.094.103.226.16.364.16zM677.791 274.514c12.67-12.81 24.676-25.828 35.684-38.688l-.23-.212c-13.042 13.107-26.329 26.066-40.618 39.617a.128.128 0 01-.09.035c-.054 0-.12-.034-.13-.108-1.353-9.102-1.053-19.035.869-28.729l-.3-.084c-3.407 9.407-4.638 19.615-3.763 31.21.033.436-.143.87-.468 1.162-10.837 9.671-21.06 19.458-30.385 29.09a.404.404 0 00.107.641l3.674 1.893a.569.569 0 00.678-.122 666.458 666.458 0 0111.666-12.453 1.808 1.808 0 011.276-.548c15.373-.182 28.572-3.772 40.349-10.974l-.145-.277c-11.462 5.06-21.715 7.417-32.266 7.417a72.58 72.58 0 01-4.554-.145.133.133 0 01-.116-.087.123.123 0 01.025-.135 703.722 703.722 0 0118.737-18.503zM493.529 532.513c-10.867 0-21.184 2.98-26.183 10.325-.058.086-.163.116-.25.059-3.275-2.136-14.055-8.661-26.614-8.661-6.758 0-14.126 3.28-21.566 7.49a.468.468 0 01-.295.056c-19.782-2.915-38.746.917-57.301 8.128 19.386-4.907 37.659-8.037 52.19-5.197.088.018.107.135.03.181-8.618 5.238-17.157 10.969-24.78 13.555 15.728-1.823 36.244-19.7 52.155-19.7 10.607 0 21.29 6.615 24.108 8.493.09.06.12.164.088.268-.775 2.497-1.08 5.342-.807 8.574 5.183-14.344 15.696-17.652 30.1-17.652 11.077 0 22.173 3.944 35.126 6.892a.752.752 0 01.33.166c7.914 6.886 22.452 13.771 29.39 14.934l2.978.5-2.812-1.1c-5.94-2.32-16.466-7.558-21.75-12.7-.065-.062-.006-.168.083-.153 5.393.911 11.128 1.515 17.317 1.515 23.054 0 33.432-4.116 39.954-6.796-6.932 1.47-13.53 3.572-36.681 3.572-21.1 0-47.618-12.749-64.81-12.749zM332.755 341.016a639.753 639.753 0 0111.746-5.789l-4.574-8.83A635.472 635.472 0 00306 343.961l4.572 8.831a649.132 649.132 0 0111.506-6.249l.699-.37 22.869 44.173a639.081 639.081 0 019.274-4.801l-22.869-44.173.705-.357zM379.052 374.173c1.286 0 2.566-.22 3.804-.656a618.01 618.01 0 0113.852-4.699c2.91-.949 5.252-2.95 6.597-5.634 1.32-2.638 1.52-5.646.561-8.473l-11.896-35.075c-1.574-4.644-6.089-7.886-10.98-7.886-1.178 0-2.344.186-3.467.552a621.47 621.47 0 00-13.818 4.686c-5.893 2.074-9.037 8.628-7.007 14.609l11.896 35.075a11.038 11.038 0 0010.458 7.501zm-8.458-49.055c2.132-.736 4.266-1.46 6.406-2.173a4.544 4.544 0 015.724 2.853l9.884 29.149a4.443 4.443 0 01-.228 3.426 4.473 4.473 0 01-2.606 2.262c-2.137.71-4.266 1.433-6.392 2.168a4.504 4.504 0 01-1.47.247h-.002a4.475 4.475 0 01-4.239-3.038l-9.884-29.149c-.801-2.358.458-4.935 2.807-5.745zM488.585 356.077c6.4 0 11.308-4.86 11.308-11.061v-37.038c.001-6.315-5.08-11.512-11.327-11.585a611.817 611.817 0 00-14.59 0c-6.248.07-11.329 5.268-11.329 11.585v37.038c0 6.203 4.907 11.062 11.17 11.062 1.202-.007 6.767-.094 14.768-.001zm-15.2-45.233c-.002-2.49 2.02-4.527 4.503-4.54 2.256-.012 4.512-.012 6.766 0 2.482.015 4.502 2.052 4.502 4.54v30.78a4.49 4.49 0 01-4.489 4.476 621.03 621.03 0 00-6.77 0c-2.498 0-4.512-2.008-4.512-4.476v-30.78zM470.797 497.46h15.997l2.487 9.756h10.566l-14.052-51.913h-13.999l-14.052 51.913h10.567l2.486-9.757zm7.999-31.387l5.512 21.63h-11.025l5.513-21.63zM506.088 413.715v-16.234c0-5.666-4.595-10.246-10.261-10.246h-22.418v51.912h10.176v-15.171h12.242c5.666 0 10.26-4.594 10.26-10.26zm-10.165-2.65a3.154 3.154 0 01-3.153 3.154h-9.185v-17.228h9.185a3.154 3.154 0 013.153 3.154v10.92zM368.92 455.304v51.912h30.387v-9.757h-20.109v-42.155zM407.635 387.235h-8.088l-11.27 26.02-11.268-26.02h-8.09v51.912h10.177v-23.952l9.181 20.781 9.182-20.78v23.95h10.176zM428.56 360.915l-2.853-17.672.764-.133c1.445-.25 2.892-.495 4.342-.734l.482-.08.283.398c3.758 5.282 7.519 10.585 11.285 15.908 3.382-.505 6.788-.983 10.149-1.426-3.706-5.284-7.411-10.55-11.111-15.793l-.56-.793.892-.379a11.04 11.04 0 006.606-11.925l-3.053-18.91c-.898-5.549-5.78-9.735-11.358-9.735-.557 0-1.12.043-1.674.127a594.47 594.47 0 00-23.981 4.108l9.515 58.922a613.7 613.7 0 0110.272-1.883zm-7.166-49.237a587.498 587.498 0 019.393-1.548c2.458-.386 4.777 1.357 5.166 3.759l2.054 12.721a4.436 4.436 0 01-.794 3.34 4.46 4.46 0 01-2.943 1.796 592.71 592.71 0 00-9.369 1.543l-.78.134-3.49-21.613.763-.132zM449.775 439.147h10.461l-12.784-51.912h-13.86l-12.784 51.912h10.461l2.195-9.756h14.116l2.195 9.756zm-14.118-19.512l4.865-21.63 4.865 21.63h-9.73zM544.775 465.06v-9.757h-32.557v51.913h10.279v-21.079h15.88v-9.755h-15.88V465.06zM520.364 298.35l-9.96 58.848c3.42.473 6.888.982 10.33 1.517l5.719-33.805.999 2.915a5899.098 5899.098 0 0111.542 34.014c2.713.506 5.425 1.03 8.134 1.573l9.958-58.847a615.072 615.072 0 00-10.252-1.965l-5.723 33.82-.994-2.953a5784.5 5784.5 0 00-11.541-33.924 631.12 631.12 0 00-8.212-1.193zM568.648 507.216h14.611c5.723 0 10.363-4.593 10.363-10.26v-7.432c0-3.851-1.493-7.378-4.956-9.133 0 0-18.187-8.092-18.434-8.226-.867-.467-1.707-1.624-1.707-2.798v-1.146c0-1.746 1.43-3.161 3.193-3.161h8.436c1.761 0 3.189 1.413 3.189 3.156v2.168h10.279v-4.821c0-5.666-4.64-10.26-10.363-10.26h-14.611c-5.724 0-10.363 4.594-10.363 10.26v5.349c0 3.85 1.493 7.378 4.956 9.132 0 0 18.187 8.093 18.434 8.227.866.467 1.707 1.624 1.707 2.798v3.23c0 1.745-1.43 3.16-3.193 3.16h-8.437c-1.76 0-3.188-1.413-3.188-3.156v-2.2h-10.28v4.854c0 5.666 4.64 10.259 10.364 10.259zM593.621 429.39h-19.8V418.07h13.466v-9.756H573.82v-11.322h19.8v-9.756h-29.976v51.912h29.976zM550.472 429.39h-18.78v-42.155h-10.177v51.912h28.957zM576.986 372.558l15.847-47.15.748.26a639.571 639.571 0 0112.327 4.415l3.168-9.426a635.633 635.633 0 00-36.217-12.172l-3.167 9.427a636.284 636.284 0 0112.49 3.925l.753.244-15.847 47.15a637.828 637.828 0 019.898 3.327zM445.374 465.06v-9.757h-32.558v51.913h32.558v-9.757h-22.279v-11.322h15.88v-9.755h-15.88V465.06zM645.92 338.188a612.758 612.758 0 00-12.966-6.697 11.115 11.115 0 00-5.034-1.191c-4.313 0-8.374 2.466-10.346 6.283l-17.001 32.905c-1.37 2.653-1.623 5.658-.712 8.464.929 2.855 2.946 5.183 5.681 6.556a610.686 610.686 0 0112.994 6.714 11.419 11.419 0 005.333 1.342c4.136 0 7.887-2.291 9.793-5.979l17.002-32.904c2.9-5.61.771-12.56-4.745-15.493zm-6.112 13.11l-14.129 27.346a4.46 4.46 0 01-3.975 2.42c-.72 0-1.441-.177-2.086-.514a620.372 620.372 0 00-5.997-3.099 4.475 4.475 0 01-1.952-6.047l14.128-27.345a4.531 4.531 0 016.085-1.967 622.512 622.512 0 016.01 3.106c2.2 1.153 3.059 3.89 1.916 6.1z"/></g></svg>