<svg xmlns="http://www.w3.org/2000/svg" viewBox="0 0 960 640"><path fill="#010101" d="M581.374 603.26v11.825h-2.957V603.26h-3.423v-2.937h9.802v2.938h-3.422zm16.022 11.825v-8.713l-2.49 5.428h-2.611l-2.49-5.428v8.713h-2.956v-14.762h2.956l3.796 7.883 3.795-7.883h2.957v14.762h-2.957z"/><path fill="#FFF" d="M517.313 35.03L480 0s-30.894 29.003-37.312 35.03H243.575v437.294C317.907 554.723 380.31 594.081 480 640c99.495-45.83 161.97-85.14 236.425-167.676V35.03H517.313z"/><path fill="#B9975B" d="M514.049 43.263c-.345-.34-34.05-31.972-34.05-31.972s-33.702 31.632-34.048 31.972H251.808V469.16C321.456 546.387 383.548 586.5 480 630.935c96.246-44.34 158.326-84.306 228.192-161.775V43.263H514.05zM325.903 225.935V451.21a496.324 496.324 0 01-8.232-8.323v-216.95c0-91.853 52.835-155.167 128.263-182.657.913.638 2.537 4.634 2.936 5.673 1.17 3.052 2.124 6.508 2.87 9.72 0 0-4.12-3.446-8.23-5.418-80.545 33.652-117.607 95.655-117.607 172.681zm148.691 187.66l-36.41-117.762 12.237-12.237-2.906 14.548L480 403.212l-5.406 10.383zM517.8 528.981l-14.485 16.645 107.793-310.821 10.457-5.025L517.8 528.981z"/><path fill="#010101" d="M691.726 59.728v403.104C628.12 533.364 561.471 575.268 480 612.806c-81.471-37.538-148.12-79.442-211.726-149.974V59.728h142.408c-56.125 32.651-93.011 89.466-93.011 166.208v216.95c38.271 39.664 90 79.58 139.015 102.74L348.888 234.805l101.533 48.79-12.237 12.238 36.41 117.762h10.813l36.41-117.762-12.238-12.237 101.53-48.791-107.794 310.82c48.681-23.003 100.438-62.759 139.015-102.739v-216.95c0-76.742-36.887-133.557-93.012-166.208h142.408z"/><g fill="#333F48"><path d="M508.26 58.671c2.89-12.441 5.805-15.392 5.805-15.392A93549.915 93549.915 0 00480 11.29v310.916l22.594-72.713 120.383-57.932c-10.751-62.247-51.307-109.78-114.717-132.89zM634.097 257.019l-89.573 259.227 15.524-20.05s40.82-31.248 65.816-60.024V303.717l8.233-46.698zM325.903 257.019l74.545 215.734-41.44-97.654-24.872-71.382-8.233-46.698zm123.332-21.208l-95.87-36.385 104.041 50.068V97.144l-8.171 138.667z"/></g></svg>