<svg xmlns="http://www.w3.org/2000/svg" viewBox="0 0 960 640"><path fill="#041E42" d="M682.194 585.33c-8.281 0-15.005 6.714-15.005 15.002 0 8.277 6.724 15 15.005 15 8.282 0 14.995-6.723 14.995-15 0-8.288-6.713-15.001-14.995-15.001zm0 26.784a11.772 11.772 0 01-11.782-11.782c0-6.51 5.265-11.775 11.782-11.775 6.51 0 11.78 5.264 11.78 11.775 0 6.512-5.27 11.782-11.78 11.782zm6.164-15.26a5.085 5.085 0 00-5.09-5.082h-7.228v17.123h3.213v-6.954h2.306l3.246 6.954h3.553l-3.389-7.251a5.095 5.095 0 003.39-4.79zm-5.09 1.872h-4.015v-3.747h4.015c1.033 0 1.877.84 1.877 1.876a1.878 1.878 0 01-1.877 1.871z"/><path fill="#A2AAAD" d="M799.997 320.002C799.997 496.739 656.793 640 480.048 640c-176.733 0-320.045-143.26-320.045-319.998C160.003 143.258 303.273 0 480.005 0c176.746 0 319.992 143.258 319.992 320.002"/><path fill="#041E42" d="M480.005 21.477c-164.873 0-298.507 133.666-298.507 298.525 0 164.851 133.678 298.522 298.551 298.522s298.46-133.67 298.46-298.522c0-164.86-133.631-298.525-298.504-298.525zM615.12 377.453l-13.254-6.604-84.073 5.624v12.42l38.18 54.924v33.314l-52.662-25.965-4.333-10.935-18.977 42.006-18.39-42.014-4.347 10.943-52.654 25.965v-33.306l38.188-54.931v-12.421l-84.074-5.624-13.26 6.604v-76.958l-.162-21.645 18.298 44.02 83.403-39.797 4.497-51.088L480.04 99.241l29.05 132.744 4.496 51.088 83.395 39.798 17.808-44.582.33 22.206v76.958z"/><path fill="#FFF" d="M508.888 101.817L480.02 29.064l-30.614 72.757c-107.727 14.533-190.801 106.785-190.801 218.5 0 121.796 99.611 220.547 221.415 220.547 121.806 0 219.666-98.75 219.666-220.546 0-111.717-83.066-203.974-190.798-218.505zM615.12 377.453l-13.254-6.604-84.073 5.624v12.42l38.18 54.924v33.314l-52.662-25.965-4.333-10.935-18.977 42.006-18.39-42.014-4.347 10.943-52.654 25.965v-33.306l38.188-54.931v-12.421l-84.074-5.624-13.26 6.604v-76.958l-.162-21.645 18.298 44.02 83.403-39.797 4.497-51.088L480.04 99.241l29.05 132.744 4.496 51.088 83.395 39.798 17.808-44.582.33 22.206v76.958z"/><g fill="#782F40"><path d="M345.287 278.851l18.302 44.02 83.402-39.8 4.5-51.086 6.194-28.61-42.022-27.552 16.913 100.154-44.723-44.622-1.227 35.21-65.442-24.693 24.269 64.262v-5.64l-.166-21.643zM442.785 376.473l-59.33-3.97 23.996 20.936L393.346 411l30.608 4.979 18.831-27.086zM480.027 482.037l-18.43-41.814-.35.885 18.784 91.215 19.011-91.892-.078-.2zM517.78 388.894L536.62 416l30.98-4.987-14.114-17.575 24.027-20.962-59.734 3.996zM513.575 283.073l83.396 39.798 17.807-44.582.329 22.203v6.67l24.672-65.3-65.466 24.703-1.235-35.21-44.719 44.629c1.146-6.954 16.913-100.162 16.913-100.162l-42.346 27.81 6.155 28.352 4.494 51.09zM651.158 308.228l-36.05-.17v31.622zM309.777 308.228l35.674 31.121v-31.291z"/></g><g fill="#A6192E"><path d="M442.717 376.473l-54.395-3.637 22.99 20.065c-.364 1.017-12.47 15.99-12.47 15.99l26.928 4.382 16.947-24.379v-12.421zM456.953 206.44l-37.238-24.452.074.443 29.622 72.384 2.009-22.829 5.533-25.546zM432.553 280.107c-.035-.028-.07-.047-.106-.076l-41.87-41.762-1.223 32.421-62.601-23.547 61.121 64.106 51.394-24.524-6.715-6.618zM466.468 451.326l13.593 68.66-.066-37.722zM317.635 311.15l27.75 24.214V311.02zM540.946 182.211l-37.386 24.662 4.193 19.317zM634.653 247.076l-62.515 23.652-18.28 31.602 12.502 5.967z"/></g><path fill="#53565A" d="M614.79 278.29l-17.808 44.58-83.395-39.797-4.495-51.088-29.05-132.744L451.5 231.985l-4.497 51.088-83.403 39.798-18.298-44.021.162 21.645v76.958l13.26-6.604 84.074 5.624v12.42l-38.188 54.932v33.306l52.654-25.965 4.346-10.943 18.391 42.014 18.977-42.006 4.333 10.935 52.661 25.965v-33.314l-38.179-54.923v-12.422l84.073-5.623 13.254 6.604v-76.958l-.33-22.206zM480.007 467.9l-18.2-41.34-6.187-14.344 3.664 18.26-6.553 16.506-42.36 20.894v-22.248l38.18-54.923v-19.608l-91.006-6.09-6.317 3.146v-60.032l9.384 22.555 83.771-39.971 5.468 26.782 2.574-30.62.028-.006 4.751-54.077 22.817-110.276-.014 345.393z"/></svg>