<svg xmlns="http://www.w3.org/2000/svg" viewBox="0 0 960 640"><path fill="#041E42" d="M923.987 386.933c-8.282 0-15.005 6.714-15.005 15.001 0 8.278 6.723 15.001 15.005 15.001s14.995-6.723 14.995-15c0-8.288-6.713-15.002-14.995-15.002zm0 26.784a11.772 11.772 0 01-11.782-11.783c0-6.51 5.264-11.774 11.782-11.774 6.51 0 11.78 5.264 11.78 11.774 0 6.512-5.27 11.783-11.78 11.783zm6.164-15.26a5.085 5.085 0 00-5.09-5.082h-7.228v17.123h3.213v-6.954h2.305l3.247 6.954h3.553l-3.39-7.251a5.095 5.095 0 003.39-4.79zm-5.09 1.872h-4.015v-3.747h4.014c1.033 0 1.878.84 1.878 1.876a1.878 1.878 0 01-1.877 1.871z"/><path fill="#FFF" d="M205.198 415.812h68.71l-23.392 56.509h57.554l23.401-56.51h169.232l-4.911 11.874c-11.23 27.108-9.702 61.921 1.809 80.373l65.528 105 50.713-73.627h83.073l45.357-55.77H637.094l-31.736 39.035-63.168-52.515c-1.411-1.329-3.046-8.184-.42-14.5l28.758-69.462s6.06 29.593 44.468 29.593h228.218c10.839 0 43.839 0 56.558-30.726 11.564-27.958-5.693-43.292-5.693-43.292h18.188l20.75-50.052H821.44c-14.105 0-27.166 3.59-37.44 9.755l52.682-127.208h-57.564L721.28 313.967s-10.314-22.225-44.16-22.225H609.66l109.645-264.8h-57.56l-109.653 264.8H411.31c-36.717 0-70.656 15.473-94.566 41.427 0 0-.277-41.427-49.42-41.427H142.059c-50.076 0-101.691 29.891-117.498 68.052-11.163 26.944 4.552 56.018 40.235 56.018H113.6c20.307 0 41.886-13.515 51.19-20.094 0 0 10.355 20.094 40.41 20.094z"/><g fill="#C8102E"><path d="M643.7 497.542l-22.776 28.015h69.38l22.78-28.015zM259.902 219.863l19.919-14.475 19.922 14.475-7.608-23.423 19.915-14.464h-24.62l-7.609-23.43-7.605 23.43h-24.632l19.927 14.464zM388.965 219.863l19.915-14.475 19.93 14.475-7.612-23.423 19.926-14.464h-24.62l-7.624-23.43-7.601 23.43H376.65l19.923 14.464zM545.555 181.976l-7.605-23.43-7.608 23.43h-24.62l19.918 14.464-7.612 23.423 19.922-14.475 19.926 14.475-7.615-23.423 19.922-14.464zM210.874 250.834h.075l-1.514 23.22h8.024l22.385-29.119h-6.528l-16.973 22.751h-.085l1.564-22.75h-8.23l-17.01 22.75h-.074l1.716-22.75h-7.022l-1.653 29.119h7.869zM257.073 267.53l.65 6.525h7.74l-2.821-29.12h-8.22l-26.916 29.12h7.015l5.778-6.525h16.774zm-1.173-17.428l.814 12.659h-12.111l11.297-12.659zM272.952 264.932c-2.584 6.251 1.19 9.89 9.616 9.89 9.887 0 16.529-3.55 19.017-9.566 5.309-12.823-18.81-5.253-15.687-12.79 1.101-2.659 4.645-3.992 7.353-3.992 4.516 0 6.563 1.376 5.241 5.164h6.533c2.242-5.895-.875-9.47-9.39-9.47-6.77 0-14.19 2.697-16.965 9.43-4.855 11.693 18.504 5.954 15.8 12.468-.871 2.107-3.814 4.431-9.215 4.431-5.164 0-6.841-2.103-5.768-5.565h-6.536zM311.212 274.055l5.177-12.506h15.85l-5.181 12.506h6.536l12.06-29.12h-6.524l-4.922 11.862h-15.846l4.904-11.862h-6.535l-12.069 29.12zM348.995 274.055l12.073-29.12h-6.536l-12.065 29.12zM363.85 274.055l9.428-22.748h.075l7.488 22.748h8.778l12.065-29.12h-5.882l-9.257 22.346h-.093l-7.235-22.346h-9.197l-12.055 29.12zM438.064 254.32c2.818-6.808-2.37-10.153-11.155-10.153-11.468 0-20.338 6.521-23.96 15.236-4.367 10.575 1.006 15.42 11.863 15.42 4.225 0 10.938-.818 15.824-2.584l5.644-13.6h-15.694l-1.876 4.513h9.311l-2.292 5.569c-3.65 1.005-5.999 1.332-8.543 1.332-8.949 0-9.677-5.284-7.428-10.686 3.135-7.577 10.11-10.682 16.24-10.682 3.231 0 6.767 1.567 5.285 5.636h6.781zM446.092 274.055h6.54l10.088-24.365h11.095l1.976-4.755H447.07l-1.973 4.755H456.2zM484.15 274.822c10.736 0 19.094-5.12 23.327-15.345 4.236-10.2.103-15.31-10.633-15.31-10.726 0-19.098 5.11-23.328 15.31-4.235 10.224-.095 15.345 10.633 15.345zm-3.86-15.345c2.836-6.859 8.291-10.569 14.585-10.569 6.333 0 8.671 3.71 5.828 10.57-2.84 6.872-8.255 10.575-14.585 10.575-6.286 0-8.67-3.703-5.828-10.576zM537.29 267.281h-.082l-7.229-22.346h-9.208l-12.061 29.12h5.885l9.428-22.748h.078l7.474 22.748h8.799l12.058-29.12h-5.889z"/></g><g fill="#041E42"><path d="M133.934 327.923h36.416l9.23-22.3h-37.522c-44.205 0-91.066 26.629-104.68 59.476-8.213 19.859 3.852 36.835 27.417 36.835H113.6c21.213 0 47.038-20.409 47.038-20.409l-22.811-9.617s-10.349 7.733-21.568 7.733H69.487c-5.86 0-8.278-5.632-5.2-13.102 8.842-21.334 40.023-38.616 69.647-38.616zM205.198 401.934h28.278c10.157 0 18.867-5.913 18.867-5.913l-2.442 5.913h27.507l22.52-54.38c9.592-23.156-5.004-41.931-32.602-41.931h-71.517l-9.233 22.3h77.441c16.533 0 11.493 12.15 11.493 12.15h-55.77c-22.16 0-38.505 10.21-43.729 22.82-8.92 21.543 4.14 39.041 29.187 39.041zm-5.032-30.943c1.976-4.75 7.439-8.621 12.211-8.621h38.601c8.824 0 16.692-3.351 16.692-3.351l-4.523 10.913c-2.211 5.356-9.937 9.71-15.967 9.71h-41.96c-4.77 0-7.033-3.874-5.054-8.65zM596.35 305.623l-9.23 22.3h86.685c16.542 0 11.496 12.15 11.496 12.15h-55.766c-22.158 0-38.509 10.21-43.715 22.82-8.938 21.543 4.119 39.041 29.177 39.041h28.267c10.163 0 18.884-5.913 18.884-5.913l-2.46 5.913h27.518l22.517-54.38c9.592-23.156-5-41.931-32.603-41.931h-80.77zm76.598 64.31c-2.221 5.355-9.936 9.708-15.96 9.708h-41.97c-4.766 0-7.033-3.873-5.06-8.65 1.975-4.75 7.444-8.621 12.21-8.621h38.609c8.813 0 16.688-3.351 16.688-3.351l-4.517 10.913zM727.389 401.934l88.514-213.76H788.4l-88.528 213.76zM518.387 305.623h-27.51l-9.236 22.3h27.502zM478.495 401.934l25.623-61.86h-27.52l-25.62 61.86zM777.714 327.777c-8.483 20.51 2.544 37.148 24.67 37.148h55.841c4.066 0 5.999 3.295 4.307 7.36-1.684 4.066-6.34 7.356-10.398 7.356H749.99l-9.23 22.293h102.453c19.087 0 36.366-4.364 43.722-22.15 8.497-20.524-2.54-37.152-24.66-37.152H806.44c-4.072 0-6.01-3.294-4.318-7.356 1.688-4.073 6.347-7.353 10.41-7.353h90.468l9.233-22.3H821.44c-19.08 0-37.951 8.206-43.726 22.154zM298.802 458.436l31.956-77.17c12.2-29.461 39.077-53.343 81.598-53.343h27.286l-17.285 41.732c-2.272 5.49-8.636 9.987-14.12 9.987H344.66l-9.24 22.293h76.097c13.743 0 27.585-6.277 35.328-24.99l29.547-71.322h-65.08c-51.058 0-89.915 31.807-106.163 71.033l-33.86 81.78h27.513z"/><path d="M508.61 432.987c-9.09 21.991-8.746 52.461.768 67.721l54.327 87.047 35.758-51.917-66.143-54.985c-6.965-5.768-8.934-19.492-4.371-30.491L698.535 40.816h-27.517L561.366 305.623h-32.613l-9.236 22.3h32.624l-43.53 105.064z"/></g></svg>