<?xml version="1.0" encoding="UTF-8"?>
<svg viewBox="0 0 476.28 355.13" xmlns="http://www.w3.org/2000/svg">
<path transform="translate(-2.46 -1)" d="M240.57,224.44s9.94,55.23,10.21,57.58a12.87,12.87,0,0,1,5.19,7.86c22.82,7.47,35.1,36.18,37.83,54.14a20.73,20.73,0,0,1,8.85,12.06s26.37-46.34,47-61.07c6.45-4.59,14.8-11.41,25.28-18.29,22.72-14.9,73.76-48.41,74.53-98.07a82.39,82.39,0,0,0-.66-10.86c16.6-23.63,23.53-40.93,24-62.11.27-10.7-2-24.67-2-24.67-.93,2.35-1.81,4.53-2.95,7-3.93,8.63-17.75,24.12-44.66,43.12,24.73-21.89,54.7-56.38,55.52-95,.22-13.32-3.06-22-6.66-35.15,0,0-7.86,46.06-88.77,88-26.16,13.59-50,27.67-65.19,42.85-14,14-23.7,36.34-33.91,76.08-6.44-15.18-17.52-41.75-19.32-46.07l1.74-.87c.77-.16,3.82-2.29,11.25,4.91,3.22-4.09,6.55-12.82,6.61-18.28,0-3.66-1.15-15.45-16-17.63-2.29-3.22-8.62-9-28.93-9.06-2.41,0-23.53-.33-26.05,15.61-.16,1.2-17.25,68.6-17.25,68.6-14.08-39.78-19.22-59.32-33.25-73.29-15.18-15.18-39-29.26-65.13-42.79-80.91-42-88.78-88-88.78-88C5.48,14.21,2.2,22.89,2.47,36.2c.82,38.64,30.79,73.14,55.53,95-26.92-19-40.73-34.49-44.72-43.11-1.09-2.57-2-4.75-2.89-7,0,0-2.29,14-2,24.66.49,21.18,7.42,38.48,24,62.11a80.77,80.77,0,0,0-.65,10.86c.76,49.67,51.75,83.18,74.47,98.08,10.48,6.87,18.83,13.7,25.27,18.28,20.64,14.74,47,61.07,47,61.07a21,21,0,0,1,8.85-12.06c2.73-18,15.07-46.66,37.83-54.08a12.71,12.71,0,0,1,5.19-7.86c.33-2.41,10.21-57.69,10.21-57.69" fill="#0e2b58"/>
<path transform="translate(-2.46 -1)" d="M197.27,232.75l41.49-61.95,46.57,60.53-29.42-72.92,8.84-4.42c2.24-.49,4.91-1.42,11.25,3.33,3.82-13.7.65-20.19-12.12-20.52-.17-5.78-11.41-7.48-12.18-7.7-3.22-.7-11.25-.92-12.28-1,0,0-17.36-.6-19,9.55Z" fill="#fff"/>
<path transform="translate(-2.46 -1)" d="M245,139.59a5,5,0,0,0,3.82,3.06c3.49.81,6.22-2.19,6.22-2.19A35.67,35.67,0,0,0,235,137.41a99.86,99.86,0,0,1,10,2.18" fill="#0e2b58"/>
<path transform="translate(-2.46 -1)" d="M115.37,232.76C84.52,215.68,47.23,198.43,38.28,177c1.14,33,21.94,55.29,44.38,73,22.83,17.95,47.5,30.73,56.07,40.17L122.3,249.79c19.66,11.63,37.62,23.14,50.45,34.82-4.15-4.91-30.9-37.22-57.38-51.85m-45.7-99.11,7.21,17.68c-28.18-16.31-54-33.61-62-53.48,2,62.71,57.44,98.4,96.64,125.42l-23.69-58c41.93,23.58,84.18,46.06,100.18,70a204.65,204.65,0,0,0-26.48-33.73C141.85,182,105.1,161,69.67,133.65m5.79.06L47.78,65.92C29.38,53.37,15.07,40.11,9.29,25.54,10.76,74.38,42,107.89,75.46,133.71" fill="#e51535"/>
<path transform="translate(-2.46 -1)" d="M308.44,284.63c12.83-11.73,30.79-23.19,50.45-34.82L342.45,290.2c8.58-9.44,33.25-22.21,56-40.17,22.44-17.68,43.3-39.95,44.44-73-9,21.4-46.24,38.64-77.09,55.67-26.48,14.68-53.23,47-57.38,51.9m11.25-83.12a203,203,0,0,0-26.48,33.73c16-24,58.25-46.39,100.18-70l-23.64,58c39.2-27,94.73-62.77,96.64-125.42-8,19.87-33.85,37.17-62,53.49l7.2-17.69C376.14,161,339.34,182,319.69,201.51M471.9,25.56c-5.84,14.57-20.09,27.83-38.49,40.33l-27.68,67.84c33.41-25.82,64.7-59.38,66.17-108.17" fill="#e51535"/>
</svg>
